<?xml version="1.0" encoding="UTF-8"?>
<svg version="1.1" xmlns="http://www.w3.org/2000/svg" width="1024" height="1024">
<path d="M0 0 C337.92 0 675.84 0 1024 0 C1024 337.92 1024 675.84 1024 1024 C686.08 1024 348.16 1024 0 1024 C0 686.08 0 348.16 0 0 Z " fill="#FEFEFE" transform="translate(0,0)"/>
<path d="M0 0 C10.23 0 20.46 0 31 0 C31 10.23 31 20.46 31 31 C41.23 31 51.46 31 62 31 C62 20.77 62 10.54 62 0 C82.46 0 102.92 0 124 0 C124 20.46 124 40.92 124 62 C134.23 62 144.46 62 155 62 C155 92.69 155 123.38 155 155 C175.46 155 195.92 155 217 155 C217 144.77 217 134.54 217 124 C227.23 124 237.46 124 248 124 C248 154.69 248 185.38 248 217 C237.77 217 227.54 217 217 217 C217 206.77 217 196.54 217 186 C206.77 186 196.54 186 186 186 C186 196.23 186 206.46 186 217 C175.77 217 165.54 217 155 217 C155 227.23 155 237.46 155 248 C175.46 248 195.92 248 217 248 C217 268.46 217 288.92 217 310 C227.23 310 237.46 310 248 310 C248 330.46 248 350.92 248 372 C258.23 372 268.46 372 279 372 C279 382.23 279 392.46 279 403 C268.77 403 258.54 403 248 403 C248 433.69 248 464.38 248 496 C268.46 496 288.92 496 310 496 C310 526.69 310 557.38 310 589 C289.54 589 269.08 589 248 589 C248 599.23 248 609.46 248 620 C227.54 620 207.08 620 186 620 C186 589.31 186 558.62 186 527 C175.77 527 165.54 527 155 527 C155 537.23 155 547.46 155 558 C144.77 558 134.54 558 124 558 C124 547.77 124 537.54 124 527 C113.77 527 103.54 527 93 527 C93 547.46 93 567.92 93 589 C82.77 589 72.54 589 62 589 C62 599.23 62 609.46 62 620 C72.23 620 82.46 620 93 620 C93 630.23 93 640.46 93 651 C21.39 651 -50.22 651 -124 651 C-124 599.85 -124 548.7 -124 496 C-134.23 496 -144.46 496 -155 496 C-155 516.46 -155 536.92 -155 558 C-185.69 558 -216.38 558 -248 558 C-248 568.23 -248 578.46 -248 589 C-258.23 589 -268.46 589 -279 589 C-279 599.23 -279 609.46 -279 620 C-289.23 620 -299.46 620 -310 620 C-310 630.23 -310 640.46 -310 651 C-320.23 651 -330.46 651 -341 651 C-341 630.54 -341 610.08 -341 589 C-330.77 589 -320.54 589 -310 589 C-310 558.31 -310 527.62 -310 496 C-299.77 496 -289.54 496 -279 496 C-279 475.54 -279 455.08 -279 434 C-299.46 434 -319.92 434 -341 434 C-341 423.77 -341 413.54 -341 403 C-330.77 403 -320.54 403 -310 403 C-310 392.77 -310 382.54 -310 372 C-289.54 372 -269.08 372 -248 372 C-248 361.77 -248 351.54 -248 341 C-237.77 341 -227.54 341 -217 341 C-217 330.77 -217 320.54 -217 310 C-206.77 310 -196.54 310 -186 310 C-186 299.77 -186 289.54 -186 279 C-155.31 279 -124.62 279 -93 279 C-93 299.46 -93 319.92 -93 341 C-103.23 341 -113.46 341 -124 341 C-124 330.77 -124 320.54 -124 310 C-134.23 310 -144.46 310 -155 310 C-155 330.46 -155 350.92 -155 372 C-114.08 372 -73.16 372 -31 372 C-31 361.77 -31 351.54 -31 341 C-20.77 341 -10.54 341 0 341 C0 351.23 0 361.46 0 372 C10.23 372 20.46 372 31 372 C31 361.77 31 351.54 31 341 C41.23 341 51.46 341 62 341 C62 330.77 62 320.54 62 310 C82.46 310 102.92 310 124 310 C124 320.23 124 330.46 124 341 C134.23 341 144.46 341 155 341 C155 320.54 155 300.08 155 279 C124.31 279 93.62 279 62 279 C62 268.77 62 258.54 62 248 C51.77 248 41.54 248 31 248 C31 237.77 31 227.54 31 217 C20.77 217 10.54 217 0 217 C0 186.31 0 155.62 0 124 C20.46 124 40.92 124 62 124 C62 103.54 62 83.08 62 62 C31.31 62 0.62 62 -31 62 C-31 51.77 -31 41.54 -31 31 C-20.77 31 -10.54 31 0 31 C0 20.77 0 10.54 0 0 Z " fill="#000000" transform="translate(651,310)"/>
<path d="M0 0 C10.23 0 20.46 0 31 0 C31 20.46 31 40.92 31 62 C20.77 62 10.54 62 0 62 C0 82.46 0 102.92 0 124 C10.23 124 20.46 124 31 124 C31 113.77 31 103.54 31 93 C41.23 93 51.46 93 62 93 C62 72.54 62 52.08 62 31 C72.23 31 82.46 31 93 31 C93 51.46 93 71.92 93 93 C113.46 93 133.92 93 155 93 C155 103.23 155 113.46 155 124 C165.23 124 175.46 124 186 124 C186 134.23 186 144.46 186 155 C196.23 155 206.46 155 217 155 C217 165.23 217 175.46 217 186 C206.77 186 196.54 186 186 186 C186 206.46 186 226.92 186 248 C175.77 248 165.54 248 155 248 C155 227.54 155 207.08 155 186 C144.77 186 134.54 186 124 186 C124 196.23 124 206.46 124 217 C113.77 217 103.54 217 93 217 C93 227.23 93 237.46 93 248 C103.23 248 113.46 248 124 248 C124 258.23 124 268.46 124 279 C103.54 279 83.08 279 62 279 C62 289.23 62 299.46 62 310 C82.46 310 102.92 310 124 310 C124 320.23 124 330.46 124 341 C134.23 341 144.46 341 155 341 C155 381.92 155 422.84 155 465 C144.77 465 134.54 465 124 465 C124 454.77 124 444.54 124 434 C113.77 434 103.54 434 93 434 C93 423.77 93 413.54 93 403 C103.23 403 113.46 403 124 403 C124 392.77 124 382.54 124 372 C113.77 372 103.54 372 93 372 C93 361.77 93 351.54 93 341 C72.54 341 52.08 341 31 341 C31 351.23 31 361.46 31 372 C10.54 372 -9.92 372 -31 372 C-31 341.31 -31 310.62 -31 279 C-41.23 279 -51.46 279 -62 279 C-62 268.77 -62 258.54 -62 248 C-72.23 248 -82.46 248 -93 248 C-93 268.46 -93 288.92 -93 310 C-82.77 310 -72.54 310 -62 310 C-62 330.46 -62 350.92 -62 372 C-72.23 372 -82.46 372 -93 372 C-93 361.77 -93 351.54 -93 341 C-103.23 341 -113.46 341 -124 341 C-124 361.46 -124 381.92 -124 403 C-83.08 403 -42.16 403 0 403 C0 413.23 0 423.46 0 434 C-20.46 434 -40.92 434 -62 434 C-62 454.46 -62 474.92 -62 496 C-82.46 496 -102.92 496 -124 496 C-124 485.77 -124 475.54 -124 465 C-113.77 465 -103.54 465 -93 465 C-93 454.77 -93 444.54 -93 434 C-113.46 434 -133.92 434 -155 434 C-155 423.77 -155 413.54 -155 403 C-175.46 403 -195.92 403 -217 403 C-217 413.23 -217 423.46 -217 434 C-227.23 434 -237.46 434 -248 434 C-248 413.54 -248 393.08 -248 372 C-278.69 372 -309.38 372 -341 372 C-341 382.23 -341 392.46 -341 403 C-330.77 403 -320.54 403 -310 403 C-310 433.69 -310 464.38 -310 496 C-299.77 496 -289.54 496 -279 496 C-279 516.46 -279 536.92 -279 558 C-289.23 558 -299.46 558 -310 558 C-310 568.23 -310 578.46 -310 589 C-289.54 589 -269.08 589 -248 589 C-248 609.46 -248 629.92 -248 651 C-278.69 651 -309.38 651 -341 651 C-341 640.77 -341 630.54 -341 620 C-361.46 620 -381.92 620 -403 620 C-403 589.31 -403 558.62 -403 527 C-392.77 527 -382.54 527 -372 527 C-372 516.77 -372 506.54 -372 496 C-361.77 496 -351.54 496 -341 496 C-341 485.77 -341 475.54 -341 465 C-361.46 465 -381.92 465 -403 465 C-403 444.54 -403 424.08 -403 403 C-392.77 403 -382.54 403 -372 403 C-372 392.77 -372 382.54 -372 372 C-382.23 372 -392.46 372 -403 372 C-403 361.77 -403 351.54 -403 341 C-382.54 341 -362.08 341 -341 341 C-341 330.77 -341 320.54 -341 310 C-330.77 310 -320.54 310 -310 310 C-310 299.77 -310 289.54 -310 279 C-279.31 279 -248.62 279 -217 279 C-217 289.23 -217 299.46 -217 310 C-206.77 310 -196.54 310 -186 310 C-186 299.77 -186 289.54 -186 279 C-175.77 279 -165.54 279 -155 279 C-155 248.31 -155 217.62 -155 186 C-144.77 186 -134.54 186 -124 186 C-124 175.77 -124 165.54 -124 155 C-113.77 155 -103.54 155 -93 155 C-93 134.54 -93 114.08 -93 93 C-72.54 93 -52.08 93 -31 93 C-31 82.77 -31 72.54 -31 62 C-41.23 62 -51.46 62 -62 62 C-62 51.77 -62 41.54 -62 31 C-41.54 31 -21.08 31 0 31 C0 20.77 0 10.54 0 0 Z " fill="#000000" transform="translate(465,62)"/>
<path d="M0 0 C10.23 0 20.46 0 31 0 C31 20.46 31 40.92 31 62 C41.23 62 51.46 62 62 62 C62 82.46 62 102.92 62 124 C72.23 124 82.46 124 93 124 C93 144.46 93 164.92 93 186 C82.77 186 72.54 186 62 186 C62 175.77 62 165.54 62 155 C51.77 155 41.54 155 31 155 C31 175.46 31 195.92 31 217 C71.92 217 112.84 217 155 217 C155 227.23 155 237.46 155 248 C134.54 248 114.08 248 93 248 C93 268.46 93 288.92 93 310 C72.54 310 52.08 310 31 310 C31 299.77 31 289.54 31 279 C41.23 279 51.46 279 62 279 C62 268.77 62 258.54 62 248 C41.54 248 21.08 248 0 248 C0 237.77 0 227.54 0 217 C-20.46 217 -40.92 217 -62 217 C-62 227.23 -62 237.46 -62 248 C-72.23 248 -82.46 248 -93 248 C-93 227.54 -93 207.08 -93 186 C-123.69 186 -154.38 186 -186 186 C-186 196.23 -186 206.46 -186 217 C-175.77 217 -165.54 217 -155 217 C-155 247.69 -155 278.38 -155 310 C-144.77 310 -134.54 310 -124 310 C-124 330.46 -124 350.92 -124 372 C-134.23 372 -144.46 372 -155 372 C-155 382.23 -155 392.46 -155 403 C-134.54 403 -114.08 403 -93 403 C-93 423.46 -93 443.92 -93 465 C-123.69 465 -154.38 465 -186 465 C-186 454.77 -186 444.54 -186 434 C-206.46 434 -226.92 434 -248 434 C-248 403.31 -248 372.62 -248 341 C-237.77 341 -227.54 341 -217 341 C-217 330.77 -217 320.54 -217 310 C-206.77 310 -196.54 310 -186 310 C-186 299.77 -186 289.54 -186 279 C-206.46 279 -226.92 279 -248 279 C-248 258.54 -248 238.08 -248 217 C-237.77 217 -227.54 217 -217 217 C-217 206.77 -217 196.54 -217 186 C-227.23 186 -237.46 186 -248 186 C-248 175.77 -248 165.54 -248 155 C-227.54 155 -207.08 155 -186 155 C-186 144.77 -186 134.54 -186 124 C-175.77 124 -165.54 124 -155 124 C-155 113.77 -155 103.54 -155 93 C-124.31 93 -93.62 93 -62 93 C-62 103.23 -62 113.46 -62 124 C-51.77 124 -41.54 124 -31 124 C-31 113.77 -31 103.54 -31 93 C-20.77 93 -10.54 93 0 93 C0 62.31 0 31.62 0 0 Z " fill="#000000" transform="translate(310,248)"/>
<path d="M0 0 C71.61 0 143.22 0 217 0 C217 71.61 217 143.22 217 217 C145.39 217 73.78 217 0 217 C0 145.39 0 73.78 0 0 Z " fill="#FEFEFE" transform="translate(62,744)"/>
<path d="M0 0 C71.61 0 143.22 0 217 0 C217 71.61 217 143.22 217 217 C145.39 217 73.78 217 0 217 C0 145.39 0 73.78 0 0 Z " fill="#FEFEFE" transform="translate(744,62)"/>
<path d="M0 0 C71.61 0 143.22 0 217 0 C217 71.61 217 143.22 217 217 C145.39 217 73.78 217 0 217 C0 145.39 0 73.78 0 0 Z " fill="#FEFEFE" transform="translate(62,62)"/>
<path d="M0 0 C10.23 0 20.46 0 31 0 C31 20.46 31 40.92 31 62 C41.23 62 51.46 62 62 62 C62 72.23 62 82.46 62 93 C51.77 93 41.54 93 31 93 C31 103.23 31 113.46 31 124 C61.69 124 92.38 124 124 124 C124 144.46 124 164.92 124 186 C103.54 186 83.08 186 62 186 C62 216.69 62 247.38 62 279 C72.23 279 82.46 279 93 279 C93 289.23 93 299.46 93 310 C103.23 310 113.46 310 124 310 C124 320.23 124 330.46 124 341 C154.69 341 185.38 341 217 341 C217 361.46 217 381.92 217 403 C206.77 403 196.54 403 186 403 C186 392.77 186 382.54 186 372 C165.54 372 145.08 372 124 372 C124 382.23 124 392.46 124 403 C113.77 403 103.54 403 93 403 C93 413.23 93 423.46 93 434 C82.77 434 72.54 434 62 434 C62 423.77 62 413.54 62 403 C51.77 403 41.54 403 31 403 C31 413.23 31 423.46 31 434 C-9.92 434 -50.84 434 -93 434 C-93 413.54 -93 393.08 -93 372 C-82.77 372 -72.54 372 -62 372 C-62 382.23 -62 392.46 -62 403 C-51.77 403 -41.54 403 -31 403 C-31 372.31 -31 341.62 -31 310 C-41.23 310 -51.46 310 -62 310 C-62 299.77 -62 289.54 -62 279 C-31.31 279 -0.62 279 31 279 C31 238.08 31 197.16 31 155 C20.77 155 10.54 155 0 155 C0 144.77 0 134.54 0 124 C-20.46 124 -40.92 124 -62 124 C-62 113.77 -62 103.54 -62 93 C-41.54 93 -21.08 93 0 93 C0 82.77 0 72.54 0 62 C-10.23 62 -20.46 62 -31 62 C-31 51.77 -31 41.54 -31 31 C-20.77 31 -10.54 31 0 31 C0 20.77 0 10.54 0 0 Z " fill="#FEFEFE" transform="translate(589,248)"/>
<path d="M0 0 C71.61 0 143.22 0 217 0 C217 71.61 217 143.22 217 217 C145.39 217 73.78 217 0 217 C0 145.39 0 73.78 0 0 Z M31 31 C31 82.15 31 133.3 31 186 C82.15 186 133.3 186 186 186 C186 134.85 186 83.7 186 31 C134.85 31 83.7 31 31 31 Z " fill="#000000" transform="translate(62,744)"/>
<path d="M0 0 C71.61 0 143.22 0 217 0 C217 71.61 217 143.22 217 217 C145.39 217 73.78 217 0 217 C0 145.39 0 73.78 0 0 Z M31 31 C31 82.15 31 133.3 31 186 C82.15 186 133.3 186 186 186 C186 134.85 186 83.7 186 31 C134.85 31 83.7 31 31 31 Z " fill="#000000" transform="translate(744,62)"/>
<path d="M0 0 C71.61 0 143.22 0 217 0 C217 71.61 217 143.22 217 217 C145.39 217 73.78 217 0 217 C0 145.39 0 73.78 0 0 Z M31 31 C31 82.15 31 133.3 31 186 C82.15 186 133.3 186 186 186 C186 134.85 186 83.7 186 31 C134.85 31 83.7 31 31 31 Z " fill="#000000" transform="translate(62,62)"/>
<path d="M0 0 C10.23 0 20.46 0 31 0 C31 10.23 31 20.46 31 31 C41.23 31 51.46 31 62 31 C62 41.23 62 51.46 62 62 C51.77 62 41.54 62 31 62 C31 82.46 31 102.92 31 124 C20.77 124 10.54 124 0 124 C0 134.23 0 144.46 0 155 C-10.23 155 -20.46 155 -31 155 C-31 165.23 -31 175.46 -31 186 C9.92 186 50.84 186 93 186 C93 175.77 93 165.54 93 155 C103.23 155 113.46 155 124 155 C124 165.23 124 175.46 124 186 C134.23 186 144.46 186 155 186 C155 196.23 155 206.46 155 217 C83.39 217 11.78 217 -62 217 C-62 165.85 -62 114.7 -62 62 C-51.77 62 -41.54 62 -31 62 C-31 51.77 -31 41.54 -31 31 C-20.77 31 -10.54 31 0 31 C0 20.77 0 10.54 0 0 Z " fill="#000000" transform="translate(589,744)"/>
<path d="M0 0 C10.23 0 20.46 0 31 0 C31 10.23 31 20.46 31 31 C41.23 31 51.46 31 62 31 C62 20.77 62 10.54 62 0 C82.46 0 102.92 0 124 0 C124 20.46 124 40.92 124 62 C134.23 62 144.46 62 155 62 C155 92.69 155 123.38 155 155 C175.46 155 195.92 155 217 155 C217 144.77 217 134.54 217 124 C227.23 124 237.46 124 248 124 C248 154.69 248 185.38 248 217 C237.77 217 227.54 217 217 217 C217 206.77 217 196.54 217 186 C206.77 186 196.54 186 186 186 C186 196.23 186 206.46 186 217 C175.77 217 165.54 217 155 217 C155 206.77 155 196.54 155 186 C144.77 186 134.54 186 124 186 C124 155.31 124 124.62 124 93 C113.77 93 103.54 93 93 93 C93 103.23 93 113.46 93 124 C82.77 124 72.54 124 62 124 C62 103.54 62 83.08 62 62 C31.31 62 0.62 62 -31 62 C-31 51.77 -31 41.54 -31 31 C-20.77 31 -10.54 31 0 31 C0 20.77 0 10.54 0 0 Z " fill="#000000" transform="translate(651,310)"/>
<path d="M0 0 C10.23 0 20.46 0 31 0 C31 20.46 31 40.92 31 62 C41.23 62 51.46 62 62 62 C62 72.23 62 82.46 62 93 C51.77 93 41.54 93 31 93 C31 103.23 31 113.46 31 124 C61.69 124 92.38 124 124 124 C124 144.46 124 164.92 124 186 C103.54 186 83.08 186 62 186 C62 226.92 62 267.84 62 310 C51.77 310 41.54 310 31 310 C31 258.85 31 207.7 31 155 C20.77 155 10.54 155 0 155 C0 144.77 0 134.54 0 124 C-20.46 124 -40.92 124 -62 124 C-62 113.77 -62 103.54 -62 93 C-41.54 93 -21.08 93 0 93 C0 82.77 0 72.54 0 62 C-10.23 62 -20.46 62 -31 62 C-31 51.77 -31 41.54 -31 31 C-20.77 31 -10.54 31 0 31 C0 20.77 0 10.54 0 0 Z " fill="#FEFEFE" transform="translate(589,248)"/>
<path d="M0 0 C10.23 0 20.46 0 31 0 C31 20.46 31 40.92 31 62 C41.23 62 51.46 62 62 62 C62 82.46 62 102.92 62 124 C51.77 124 41.54 124 31 124 C31 134.23 31 144.46 31 155 C-9.92 155 -50.84 155 -93 155 C-93 144.77 -93 134.54 -93 124 C-82.77 124 -72.54 124 -62 124 C-62 113.77 -62 103.54 -62 93 C-51.77 93 -41.54 93 -31 93 C-31 72.54 -31 52.08 -31 31 C-20.77 31 -10.54 31 0 31 C0 20.77 0 10.54 0 0 Z " fill="#FEFEFE" transform="translate(651,775)"/>
<path d="M0 0 C10.23 0 20.46 0 31 0 C31 10.23 31 20.46 31 31 C41.23 31 51.46 31 62 31 C62 61.69 62 92.38 62 124 C82.46 124 102.92 124 124 124 C124 144.46 124 164.92 124 186 C113.77 186 103.54 186 93 186 C93 175.77 93 165.54 93 155 C52.08 155 11.16 155 -31 155 C-31 134.54 -31 114.08 -31 93 C-20.77 93 -10.54 93 0 93 C0 103.23 0 113.46 0 124 C10.23 124 20.46 124 31 124 C31 103.54 31 83.08 31 62 C20.77 62 10.54 62 0 62 C0 41.54 0 21.08 0 0 Z " fill="#FEFEFE" transform="translate(372,310)"/>
<path d="M0 0 C10.23 0 20.46 0 31 0 C31 20.46 31 40.92 31 62 C41.23 62 51.46 62 62 62 C62 82.46 62 102.92 62 124 C72.23 124 82.46 124 93 124 C93 144.46 93 164.92 93 186 C82.77 186 72.54 186 62 186 C62 175.77 62 165.54 62 155 C51.77 155 41.54 155 31 155 C31 144.77 31 134.54 31 124 C20.77 124 10.54 124 0 124 C0 134.23 0 144.46 0 155 C-20.46 155 -40.92 155 -62 155 C-62 144.77 -62 134.54 -62 124 C-51.77 124 -41.54 124 -31 124 C-31 113.77 -31 103.54 -31 93 C-20.77 93 -10.54 93 0 93 C0 62.31 0 31.62 0 0 Z " fill="#000000" transform="translate(310,248)"/>
<path d="M0 0 C30.69 0 61.38 0 93 0 C93 30.69 93 61.38 93 93 C62.31 93 31.62 93 0 93 C0 62.31 0 31.62 0 0 Z " fill="#000000" transform="translate(124,806)"/>
<path d="M0 0 C30.69 0 61.38 0 93 0 C93 30.69 93 61.38 93 93 C62.31 93 31.62 93 0 93 C0 62.31 0 31.62 0 0 Z " fill="#FEFEFE" transform="translate(713,713)"/>
<path d="M0 0 C30.69 0 61.38 0 93 0 C93 30.69 93 61.38 93 93 C62.31 93 31.62 93 0 93 C0 62.31 0 31.62 0 0 Z " fill="#000000" transform="translate(806,124)"/>
<path d="M0 0 C30.69 0 61.38 0 93 0 C93 30.69 93 61.38 93 93 C62.31 93 31.62 93 0 93 C0 62.31 0 31.62 0 0 Z " fill="#000000" transform="translate(124,124)"/>
<path d="M0 0 C20.46 0 40.92 0 62 0 C62 10.23 62 20.46 62 31 C72.23 31 82.46 31 93 31 C93 41.23 93 51.46 93 62 C103.23 62 113.46 62 124 62 C124 82.46 124 102.92 124 124 C113.77 124 103.54 124 93 124 C93 113.77 93 103.54 93 93 C82.77 93 72.54 93 62 93 C62 82.77 62 72.54 62 62 C41.54 62 21.08 62 0 62 C0 41.54 0 21.08 0 0 Z " fill="#FEFEFE" transform="translate(558,93)"/>
<path d="M0 0 C10.23 0 20.46 0 31 0 C31 20.46 31 40.92 31 62 C41.23 62 51.46 62 62 62 C62 72.23 62 82.46 62 93 C21.08 93 -19.84 93 -62 93 C-62 72.54 -62 52.08 -62 31 C-51.77 31 -41.54 31 -31 31 C-31 41.23 -31 51.46 -31 62 C-20.77 62 -10.54 62 0 62 C0 41.54 0 21.08 0 0 Z " fill="#FEFEFE" transform="translate(558,589)"/>
<path d="M0 0 C20.46 0 40.92 0 62 0 C62 10.23 62 20.46 62 31 C72.23 31 82.46 31 93 31 C93 41.23 93 51.46 93 62 C82.77 62 72.54 62 62 62 C62 72.23 62 82.46 62 93 C72.23 93 82.46 93 93 93 C93 103.23 93 113.46 93 124 C72.54 124 52.08 124 31 124 C31 93.31 31 62.62 31 31 C20.77 31 10.54 31 0 31 C0 20.77 0 10.54 0 0 Z " fill="#FEFEFE" transform="translate(496,403)"/>
<path d="M0 0 C10.23 0 20.46 0 31 0 C31 30.69 31 61.38 31 93 C20.77 93 10.54 93 0 93 C0 103.23 0 113.46 0 124 C-10.23 124 -20.46 124 -31 124 C-31 93.31 -31 62.62 -31 31 C-20.77 31 -10.54 31 0 31 C0 20.77 0 10.54 0 0 Z " fill="#FEFEFE" transform="translate(651,775)"/>
<path d="M0 0 C10.23 0 20.46 0 31 0 C31 10.23 31 20.46 31 31 C41.23 31 51.46 31 62 31 C62 20.77 62 10.54 62 0 C72.23 0 82.46 0 93 0 C93 30.69 93 61.38 93 93 C82.77 93 72.54 93 62 93 C62 82.77 62 72.54 62 62 C41.54 62 21.08 62 0 62 C0 41.54 0 21.08 0 0 Z " fill="#000000" transform="translate(62,465)"/>
<path d="M0 0 C10.23 0 20.46 0 31 0 C31 30.69 31 61.38 31 93 C20.77 93 10.54 93 0 93 C0 103.23 0 113.46 0 124 C-20.46 124 -40.92 124 -62 124 C-62 113.77 -62 103.54 -62 93 C-51.77 93 -41.54 93 -31 93 C-31 82.77 -31 72.54 -31 62 C-20.77 62 -10.54 62 0 62 C0 41.54 0 21.08 0 0 Z " fill="#000000" transform="translate(496,434)"/>
<path d="M0 0 C10.23 0 20.46 0 31 0 C31 10.23 31 20.46 31 31 C41.23 31 51.46 31 62 31 C62 41.23 62 51.46 62 62 C51.77 62 41.54 62 31 62 C31 82.46 31 102.92 31 124 C20.77 124 10.54 124 0 124 C0 103.54 0 83.08 0 62 C-10.23 62 -20.46 62 -31 62 C-31 51.77 -31 41.54 -31 31 C-20.77 31 -10.54 31 0 31 C0 20.77 0 10.54 0 0 Z " fill="#000000" transform="translate(620,186)"/>
<path d="M0 0 C10.23 0 20.46 0 31 0 C31 20.46 31 40.92 31 62 C51.46 62 71.92 62 93 62 C93 72.23 93 82.46 93 93 C52.08 93 11.16 93 -31 93 C-31 82.77 -31 72.54 -31 62 C-20.77 62 -10.54 62 0 62 C0 41.54 0 21.08 0 0 Z " fill="#000000" transform="translate(527,93)"/>
<path d="M0 0 C51.15 0 102.3 0 155 0 C155 10.23 155 20.46 155 31 C134.54 31 114.08 31 93 31 C93 41.23 93 51.46 93 62 C82.77 62 72.54 62 62 62 C62 51.77 62 41.54 62 31 C41.54 31 21.08 31 0 31 C0 20.77 0 10.54 0 0 Z " fill="#000000" transform="translate(558,62)"/>
<path d="M0 0 C30.69 0 61.38 0 93 0 C93 20.46 93 40.92 93 62 C82.77 62 72.54 62 62 62 C62 51.77 62 41.54 62 31 C51.77 31 41.54 31 31 31 C31 41.23 31 51.46 31 62 C20.77 62 10.54 62 0 62 C0 41.54 0 21.08 0 0 Z " fill="#FEFEFE" transform="translate(558,713)"/>
<path d="M0 0 C40.92 0 81.84 0 124 0 C124 10.23 124 20.46 124 31 C113.77 31 103.54 31 93 31 C93 41.23 93 51.46 93 62 C82.77 62 72.54 62 62 62 C62 51.77 62 41.54 62 31 C41.54 31 21.08 31 0 31 C0 20.77 0 10.54 0 0 Z " fill="#FEFEFE" transform="translate(496,186)"/>
<path d="M0 0 C10.23 0 20.46 0 31 0 C31 20.46 31 40.92 31 62 C41.23 62 51.46 62 62 62 C62 72.23 62 82.46 62 93 C41.54 93 21.08 93 0 93 C0 62.31 0 31.62 0 0 Z " fill="#000000" transform="translate(837,837)"/>
<path d="M0 0 C30.69 0 61.38 0 93 0 C93 10.23 93 20.46 93 31 C82.77 31 72.54 31 62 31 C62 41.23 62 51.46 62 62 C51.77 62 41.54 62 31 62 C31 51.77 31 41.54 31 31 C20.77 31 10.54 31 0 31 C0 20.77 0 10.54 0 0 Z " fill="#FEFEFE" transform="translate(403,775)"/>
<path d="M0 0 C30.69 0 61.38 0 93 0 C93 20.46 93 40.92 93 62 C82.77 62 72.54 62 62 62 C62 51.77 62 41.54 62 31 C41.54 31 21.08 31 0 31 C0 20.77 0 10.54 0 0 Z " fill="#FEFEFE" transform="translate(713,589)"/>
<path d="M0 0 C10.23 0 20.46 0 31 0 C31 30.69 31 61.38 31 93 C20.77 93 10.54 93 0 93 C0 82.77 0 72.54 0 62 C-10.23 62 -20.46 62 -31 62 C-31 51.77 -31 41.54 -31 31 C-20.77 31 -10.54 31 0 31 C0 20.77 0 10.54 0 0 Z " fill="#FEFEFE" transform="translate(744,403)"/>
<path d="M0 0 C10.23 0 20.46 0 31 0 C31 20.46 31 40.92 31 62 C41.23 62 51.46 62 62 62 C62 72.23 62 82.46 62 93 C41.54 93 21.08 93 0 93 C0 62.31 0 31.62 0 0 Z " fill="#FEFEFE" transform="translate(465,248)"/>
<path d="M0 0 C20.46 0 40.92 0 62 0 C62 10.23 62 20.46 62 31 C51.77 31 41.54 31 31 31 C31 41.23 31 51.46 31 62 C20.77 62 10.54 62 0 62 C0 41.54 0 21.08 0 0 Z " fill="#FEFEFE" transform="translate(403,682)"/>
<path d="M0 0 C20.46 0 40.92 0 62 0 C62 20.46 62 40.92 62 62 C51.77 62 41.54 62 31 62 C31 51.77 31 41.54 31 31 C20.77 31 10.54 31 0 31 C0 20.77 0 10.54 0 0 Z " fill="#000000" transform="translate(527,527)"/>
<path d="M0 0 C10.23 0 20.46 0 31 0 C31 20.46 31 40.92 31 62 C10.54 62 -9.92 62 -31 62 C-31 51.77 -31 41.54 -31 31 C-20.77 31 -10.54 31 0 31 C0 20.77 0 10.54 0 0 Z " fill="#000000" transform="translate(279,527)"/>
<path d="M0 0 C10.23 0 20.46 0 31 0 C31 20.46 31 40.92 31 62 C20.77 62 10.54 62 0 62 C0 41.54 0 21.08 0 0 Z " fill="#000000" transform="translate(775,899)"/>
<path d="M0 0 C10.23 0 20.46 0 31 0 C31 20.46 31 40.92 31 62 C20.77 62 10.54 62 0 62 C0 41.54 0 21.08 0 0 Z " fill="#FEFEFE" transform="translate(868,837)"/>
<path d="M0 0 C10.23 0 20.46 0 31 0 C31 20.46 31 40.92 31 62 C20.77 62 10.54 62 0 62 C0 41.54 0 21.08 0 0 Z " fill="#FEFEFE" transform="translate(837,713)"/>
<path d="M0 0 C20.46 0 40.92 0 62 0 C62 10.23 62 20.46 62 31 C41.54 31 21.08 31 0 31 C0 20.77 0 10.54 0 0 Z " fill="#000000" transform="translate(217,620)"/>
<path d="M0 0 C10.23 0 20.46 0 31 0 C31 20.46 31 40.92 31 62 C20.77 62 10.54 62 0 62 C0 41.54 0 21.08 0 0 Z " fill="#000000" transform="translate(589,589)"/>
<path d="M0 0 C10.23 0 20.46 0 31 0 C31 20.46 31 40.92 31 62 C20.77 62 10.54 62 0 62 C0 41.54 0 21.08 0 0 Z " fill="#000000" transform="translate(155,558)"/>
<path d="M0 0 C10.23 0 20.46 0 31 0 C31 20.46 31 40.92 31 62 C20.77 62 10.54 62 0 62 C0 41.54 0 21.08 0 0 Z " fill="#FEFEFE" transform="translate(124,558)"/>
<path d="M0 0 C20.46 0 40.92 0 62 0 C62 10.23 62 20.46 62 31 C41.54 31 21.08 31 0 31 C0 20.77 0 10.54 0 0 Z " fill="#FEFEFE" transform="translate(248,403)"/>
<path d="M0 0 C20.46 0 40.92 0 62 0 C62 10.23 62 20.46 62 31 C41.54 31 21.08 31 0 31 C0 20.77 0 10.54 0 0 Z " fill="#000000" transform="translate(837,372)"/>
<path d="M0 0 C20.46 0 40.92 0 62 0 C62 10.23 62 20.46 62 31 C41.54 31 21.08 31 0 31 C0 20.77 0 10.54 0 0 Z " fill="#000000" transform="translate(62,310)"/>
<path d="M0 0 C10.23 0 20.46 0 31 0 C31 20.46 31 40.92 31 62 C20.77 62 10.54 62 0 62 C0 41.54 0 21.08 0 0 Z " fill="#FEFEFE" transform="translate(403,248)"/>
<path d="M0 0 C10.23 0 20.46 0 31 0 C31 20.46 31 40.92 31 62 C20.77 62 10.54 62 0 62 C0 41.54 0 21.08 0 0 Z " fill="#FEFEFE" transform="translate(341,248)"/>
<path d="M0 0 C10.23 0 20.46 0 31 0 C31 20.46 31 40.92 31 62 C20.77 62 10.54 62 0 62 C0 41.54 0 21.08 0 0 Z " fill="#000000" transform="translate(682,155)"/>
<path d="M0 0 C10.23 0 20.46 0 31 0 C31 10.23 31 20.46 31 31 C20.77 31 10.54 31 0 31 C0 20.77 0 10.54 0 0 Z " fill="#000000" transform="translate(899,930)"/>
<path d="M0 0 C10.23 0 20.46 0 31 0 C31 10.23 31 20.46 31 31 C20.77 31 10.54 31 0 31 C0 20.77 0 10.54 0 0 Z " fill="#000000" transform="translate(465,930)"/>
<path d="M0 0 C10.23 0 20.46 0 31 0 C31 10.23 31 20.46 31 31 C20.77 31 10.54 31 0 31 C0 20.77 0 10.54 0 0 Z " fill="#000000" transform="translate(434,899)"/>
<path d="M0 0 C10.23 0 20.46 0 31 0 C31 10.23 31 20.46 31 31 C20.77 31 10.54 31 0 31 C0 20.77 0 10.54 0 0 Z " fill="#000000" transform="translate(620,868)"/>
<path d="M0 0 C10.23 0 20.46 0 31 0 C31 10.23 31 20.46 31 31 C20.77 31 10.54 31 0 31 C0 20.77 0 10.54 0 0 Z " fill="#000000" transform="translate(651,837)"/>
<path d="M0 0 C10.23 0 20.46 0 31 0 C31 10.23 31 20.46 31 31 C20.77 31 10.54 31 0 31 C0 20.77 0 10.54 0 0 Z " fill="#FEFEFE" transform="translate(372,837)"/>
<path d="M0 0 C10.23 0 20.46 0 31 0 C31 10.23 31 20.46 31 31 C20.77 31 10.54 31 0 31 C0 20.77 0 10.54 0 0 Z " fill="#FEFEFE" transform="translate(837,806)"/>
<path d="M0 0 C10.23 0 20.46 0 31 0 C31 10.23 31 20.46 31 31 C20.77 31 10.54 31 0 31 C0 20.77 0 10.54 0 0 Z " fill="#FEFEFE" transform="translate(527,775)"/>
<path d="M0 0 C10.23 0 20.46 0 31 0 C31 10.23 31 20.46 31 31 C20.77 31 10.54 31 0 31 C0 20.77 0 10.54 0 0 Z " fill="#000000" transform="translate(930,744)"/>
<path d="M0 0 C10.23 0 20.46 0 31 0 C31 10.23 31 20.46 31 31 C20.77 31 10.54 31 0 31 C0 20.77 0 10.54 0 0 Z " fill="#000000" transform="translate(744,744)"/>
<path d="M0 0 C10.23 0 20.46 0 31 0 C31 10.23 31 20.46 31 31 C20.77 31 10.54 31 0 31 C0 20.77 0 10.54 0 0 Z " fill="#FEFEFE" transform="translate(465,713)"/>
<path d="M0 0 C10.23 0 20.46 0 31 0 C31 10.23 31 20.46 31 31 C20.77 31 10.54 31 0 31 C0 20.77 0 10.54 0 0 Z " fill="#000000" transform="translate(248,682)"/>
<path d="M0 0 C10.23 0 20.46 0 31 0 C31 10.23 31 20.46 31 31 C20.77 31 10.54 31 0 31 C0 20.77 0 10.54 0 0 Z " fill="#000000" transform="translate(930,651)"/>
<path d="M0 0 C10.23 0 20.46 0 31 0 C31 10.23 31 20.46 31 31 C20.77 31 10.54 31 0 31 C0 20.77 0 10.54 0 0 Z " fill="#FEFEFE" transform="translate(651,651)"/>
<path d="M0 0 C10.23 0 20.46 0 31 0 C31 10.23 31 20.46 31 31 C20.77 31 10.54 31 0 31 C0 20.77 0 10.54 0 0 Z " fill="#000000" transform="translate(279,651)"/>
<path d="M0 0 C10.23 0 20.46 0 31 0 C31 10.23 31 20.46 31 31 C20.77 31 10.54 31 0 31 C0 20.77 0 10.54 0 0 Z " fill="#FEFEFE" transform="translate(837,620)"/>
<path d="M0 0 C10.23 0 20.46 0 31 0 C31 10.23 31 20.46 31 31 C20.77 31 10.54 31 0 31 C0 20.77 0 10.54 0 0 Z " fill="#FEFEFE" transform="translate(682,620)"/>
<path d="M0 0 C10.23 0 20.46 0 31 0 C31 10.23 31 20.46 31 31 C20.77 31 10.54 31 0 31 C0 20.77 0 10.54 0 0 Z " fill="#000000" transform="translate(651,620)"/>
<path d="M0 0 C10.23 0 20.46 0 31 0 C31 10.23 31 20.46 31 31 C20.77 31 10.54 31 0 31 C0 20.77 0 10.54 0 0 Z " fill="#000000" transform="translate(372,620)"/>
<path d="M0 0 C10.23 0 20.46 0 31 0 C31 10.23 31 20.46 31 31 C20.77 31 10.54 31 0 31 C0 20.77 0 10.54 0 0 Z " fill="#000000" transform="translate(310,620)"/>
<path d="M0 0 C10.23 0 20.46 0 31 0 C31 10.23 31 20.46 31 31 C20.77 31 10.54 31 0 31 C0 20.77 0 10.54 0 0 Z " fill="#FEFEFE" transform="translate(93,620)"/>
<path d="M0 0 C10.23 0 20.46 0 31 0 C31 10.23 31 20.46 31 31 C20.77 31 10.54 31 0 31 C0 20.77 0 10.54 0 0 Z " fill="#000000" transform="translate(930,589)"/>
<path d="M0 0 C10.23 0 20.46 0 31 0 C31 10.23 31 20.46 31 31 C20.77 31 10.54 31 0 31 C0 20.77 0 10.54 0 0 Z " fill="#000000" transform="translate(682,589)"/>
<path d="M0 0 C10.23 0 20.46 0 31 0 C31 10.23 31 20.46 31 31 C20.77 31 10.54 31 0 31 C0 20.77 0 10.54 0 0 Z " fill="#000000" transform="translate(341,589)"/>
<path d="M0 0 C10.23 0 20.46 0 31 0 C31 10.23 31 20.46 31 31 C20.77 31 10.54 31 0 31 C0 20.77 0 10.54 0 0 Z " fill="#000000" transform="translate(899,527)"/>
<path d="M0 0 C10.23 0 20.46 0 31 0 C31 10.23 31 20.46 31 31 C20.77 31 10.54 31 0 31 C0 20.77 0 10.54 0 0 Z " fill="#000000" transform="translate(620,527)"/>
<path d="M0 0 C10.23 0 20.46 0 31 0 C31 10.23 31 20.46 31 31 C20.77 31 10.54 31 0 31 C0 20.77 0 10.54 0 0 Z " fill="#000000" transform="translate(186,527)"/>
<path d="M0 0 C10.23 0 20.46 0 31 0 C31 10.23 31 20.46 31 31 C20.77 31 10.54 31 0 31 C0 20.77 0 10.54 0 0 Z " fill="#FEFEFE" transform="translate(775,496)"/>
<path d="M0 0 C10.23 0 20.46 0 31 0 C31 10.23 31 20.46 31 31 C20.77 31 10.54 31 0 31 C0 20.77 0 10.54 0 0 Z " fill="#FEFEFE" transform="translate(713,496)"/>
<path d="M0 0 C10.23 0 20.46 0 31 0 C31 10.23 31 20.46 31 31 C20.77 31 10.54 31 0 31 C0 20.77 0 10.54 0 0 Z " fill="#000000" transform="translate(248,496)"/>
<path d="M0 0 C10.23 0 20.46 0 31 0 C31 10.23 31 20.46 31 31 C20.77 31 10.54 31 0 31 C0 20.77 0 10.54 0 0 Z " fill="#000000" transform="translate(930,465)"/>
<path d="M0 0 C10.23 0 20.46 0 31 0 C31 10.23 31 20.46 31 31 C20.77 31 10.54 31 0 31 C0 20.77 0 10.54 0 0 Z " fill="#FEFEFE" transform="translate(682,465)"/>
<path d="M0 0 C10.23 0 20.46 0 31 0 C31 10.23 31 20.46 31 31 C20.77 31 10.54 31 0 31 C0 20.77 0 10.54 0 0 Z " fill="#FEFEFE" transform="translate(93,465)"/>
<path d="M0 0 C10.23 0 20.46 0 31 0 C31 10.23 31 20.46 31 31 C20.77 31 10.54 31 0 31 C0 20.77 0 10.54 0 0 Z " fill="#000000" transform="translate(930,403)"/>
<path d="M0 0 C10.23 0 20.46 0 31 0 C31 10.23 31 20.46 31 31 C20.77 31 10.54 31 0 31 C0 20.77 0 10.54 0 0 Z " fill="#FEFEFE" transform="translate(465,372)"/>
<path d="M0 0 C10.23 0 20.46 0 31 0 C31 10.23 31 20.46 31 31 C20.77 31 10.54 31 0 31 C0 20.77 0 10.54 0 0 Z " fill="#FEFEFE" transform="translate(310,372)"/>
<path d="M0 0 C10.23 0 20.46 0 31 0 C31 10.23 31 20.46 31 31 C20.77 31 10.54 31 0 31 C0 20.77 0 10.54 0 0 Z " fill="#FEFEFE" transform="translate(217,372)"/>
<path d="M0 0 C10.23 0 20.46 0 31 0 C31 10.23 31 20.46 31 31 C20.77 31 10.54 31 0 31 C0 20.77 0 10.54 0 0 Z " fill="#FEFEFE" transform="translate(155,372)"/>
<path d="M0 0 C10.23 0 20.46 0 31 0 C31 10.23 31 20.46 31 31 C20.77 31 10.54 31 0 31 C0 20.77 0 10.54 0 0 Z " fill="#000000" transform="translate(806,341)"/>
<path d="M0 0 C10.23 0 20.46 0 31 0 C31 10.23 31 20.46 31 31 C20.77 31 10.54 31 0 31 C0 20.77 0 10.54 0 0 Z " fill="#000000" transform="translate(899,310)"/>
<path d="M0 0 C10.23 0 20.46 0 31 0 C31 10.23 31 20.46 31 31 C20.77 31 10.54 31 0 31 C0 20.77 0 10.54 0 0 Z " fill="#000000" transform="translate(248,310)"/>
<path d="M0 0 C10.23 0 20.46 0 31 0 C31 10.23 31 20.46 31 31 C20.77 31 10.54 31 0 31 C0 20.77 0 10.54 0 0 Z " fill="#000000" transform="translate(682,248)"/>
<path d="M0 0 C10.23 0 20.46 0 31 0 C31 10.23 31 20.46 31 31 C20.77 31 10.54 31 0 31 C0 20.77 0 10.54 0 0 Z " fill="#000000" transform="translate(558,248)"/>
<path d="M0 0 C10.23 0 20.46 0 31 0 C31 10.23 31 20.46 31 31 C20.77 31 10.54 31 0 31 C0 20.77 0 10.54 0 0 Z " fill="#FEFEFE" transform="translate(527,248)"/>
<path d="M0 0 C10.23 0 20.46 0 31 0 C31 10.23 31 20.46 31 31 C20.77 31 10.54 31 0 31 C0 20.77 0 10.54 0 0 Z " fill="#FEFEFE" transform="translate(434,186)"/>
<path d="M0 0 C10.23 0 20.46 0 31 0 C31 10.23 31 20.46 31 31 C20.77 31 10.54 31 0 31 C0 20.77 0 10.54 0 0 Z " fill="#000000" transform="translate(651,124)"/>
<path d="M0 0 C10.23 0 20.46 0 31 0 C31 10.23 31 20.46 31 31 C20.77 31 10.54 31 0 31 C0 20.77 0 10.54 0 0 Z " fill="#000000" transform="translate(310,93)"/>
</svg>
