<?xml version="1.0" encoding="UTF-8"?>
<svg xmlns="http://www.w3.org/2000/svg" version="1.1" width="1024" height="1024" viewBox="0 0 500 500"><rect x="0" y="0" width="500" height="500" fill="#ffffff"/><g transform="scale(18.519)"><g transform="translate(1,1)"><g><g transform="translate(3.5,3.5)"><path fill-rule="evenodd" d="M-3.5 -3.5L3.5 -3.5L3.5 3.5L-3.5 3.5ZM-2.5 -2.5L-2.5 2.5L2.5 2.5L2.5 -2.5Z" fill="#000000"/><path fill-rule="evenodd" d="M-1.5 -1.5L1.5 -1.5L1.5 1.5L-1.5 1.5Z" fill="#000000"/></g></g><g><g transform="translate(21.5,3.5)"><g transform="rotate(90)"><path fill-rule="evenodd" d="M-3.5 -3.5L3.5 -3.5L3.5 3.5L-3.5 3.5ZM-2.5 -2.5L-2.5 2.5L2.5 2.5L2.5 -2.5Z" fill="#000000"/><path fill-rule="evenodd" d="M-1.5 -1.5L1.5 -1.5L1.5 1.5L-1.5 1.5Z" fill="#000000"/></g></g></g><g><g transform="translate(3.5,21.5)"><g transform="rotate(-90)"><path fill-rule="evenodd" d="M-3.5 -3.5L3.5 -3.5L3.5 3.5L-3.5 3.5ZM-2.5 -2.5L-2.5 2.5L2.5 2.5L2.5 -2.5Z" fill="#000000"/><path fill-rule="evenodd" d="M-1.5 -1.5L1.5 -1.5L1.5 1.5L-1.5 1.5Z" fill="#000000"/></g></g></g><path fill-rule="evenodd" d="M10 0L10 1L9 1L9 2L8 2L8 8L9 8L9 9L8 9L8 11L7 11L7 10L6 10L6 9L7 9L7 8L2 8L2 9L4 9L4 10L3 10L3 11L2 11L2 10L1 10L1 8L0 8L0 10L1 10L1 13L0 13L0 17L1 17L1 13L2 13L2 12L3 12L3 11L4 11L4 13L3 13L3 16L2 16L2 17L3 17L3 16L4 16L4 17L5 17L5 16L6 16L6 17L8 17L8 18L9 18L9 19L8 19L8 23L9 23L9 21L10 21L10 22L12 22L12 23L11 23L11 24L10 24L10 25L11 25L11 24L12 24L12 25L13 25L13 24L12 24L12 23L13 23L13 20L12 20L12 19L14 19L14 20L15 20L15 19L14 19L14 18L13 18L13 17L14 17L14 16L15 16L15 18L16 18L16 21L14 21L14 24L15 24L15 25L16 25L16 24L15 24L15 22L17 22L17 24L22 24L22 25L25 25L25 24L24 24L24 23L25 23L25 21L23 21L23 22L22 22L22 23L21 23L21 21L22 21L22 19L25 19L25 15L23 15L23 14L22 14L22 15L23 15L23 16L24 16L24 18L22 18L22 19L21 19L21 17L22 17L22 16L15 16L15 13L16 13L16 14L17 14L17 15L19 15L19 14L20 14L20 15L21 15L21 13L22 13L22 12L18 12L18 11L19 11L19 10L20 10L20 11L21 11L21 9L23 9L23 8L18 8L18 9L17 9L17 10L16 10L16 8L17 8L17 6L16 6L16 4L17 4L17 2L16 2L16 1L17 1L17 0L16 0L16 1L15 1L15 0L14 0L14 1L13 1L13 0L12 0L12 1L13 1L13 2L16 2L16 3L14 3L14 5L11 5L11 6L10 6L10 5L9 5L9 2L10 2L10 3L11 3L11 4L12 4L12 3L11 3L11 0ZM14 5L14 6L13 6L13 7L14 7L14 8L16 8L16 6L15 6L15 5ZM9 6L9 8L10 8L10 9L9 9L9 11L13 11L13 12L14 12L14 13L13 13L13 15L14 15L14 13L15 13L15 12L16 12L16 13L18 13L18 14L19 14L19 13L18 13L18 12L16 12L16 11L14 11L14 9L13 9L13 8L12 8L12 6L11 6L11 7L10 7L10 6ZM14 6L14 7L15 7L15 6ZM12 9L12 10L13 10L13 9ZM18 9L18 10L19 10L19 9ZM24 9L24 10L25 10L25 9ZM22 10L22 11L23 11L23 10ZM6 11L6 12L5 12L5 14L4 14L4 16L5 16L5 15L6 15L6 16L7 16L7 15L6 15L6 14L7 14L7 13L8 13L8 14L9 14L9 15L8 15L8 16L9 16L9 15L10 15L10 17L9 17L9 18L11 18L11 19L12 19L12 18L11 18L11 17L12 17L12 13L11 13L11 12L10 12L10 14L9 14L9 13L8 13L8 12L7 12L7 11ZM6 12L6 13L7 13L7 12ZM23 12L23 13L24 13L24 14L25 14L25 12ZM17 17L17 20L20 20L20 17ZM18 18L18 19L19 19L19 18ZM11 20L11 21L12 21L12 20ZM17 21L17 22L18 22L18 23L20 23L20 21L19 21L19 22L18 22L18 21ZM23 22L23 23L22 23L22 24L23 24L23 23L24 23L24 22ZM8 24L8 25L9 25L9 24Z" fill="#000000"/></g></g></svg>
