<?xml version="1.0" encoding="UTF-8"?>
<svg version="1.1" xmlns="http://www.w3.org/2000/svg" width="450" height="450">
<path d="M0 0 C148.5 0 297 0 450 0 C450 148.5 450 297 450 450 C301.5 450 153 450 0 450 C0 301.5 0 153 0 0 Z " fill="#FFFFFF" transform="translate(0,0)"/>
<path d="M0 0 C3.3 0 6.6 0 10 0 C10 3.3 10 6.6 10 10 C19.9 10 29.8 10 40 10 C40 16.6 40 23.2 40 30 C36.7 30 33.4 30 30 30 C30 33.3 30 36.6 30 40 C36.6 40 43.2 40 50 40 C50 46.6 50 53.2 50 60 C53.3 60 56.6 60 60 60 C60 50.1 60 40.2 60 30 C56.7 30 53.4 30 50 30 C50 20.1 50 10.2 50 0 C66.5 0 83 0 100 0 C100 6.6 100 13.2 100 20 C103.3 20 106.6 20 110 20 C110 23.3 110 26.6 110 30 C113.3 30 116.6 30 120 30 C120 33.3 120 36.6 120 40 C126.6 40 133.2 40 140 40 C140 36.7 140 33.4 140 30 C143.3 30 146.6 30 150 30 C150 26.7 150 23.4 150 20 C153.3 20 156.6 20 160 20 C160 23.3 160 26.6 160 30 C163.3 30 166.6 30 170 30 C170 33.3 170 36.6 170 40 C166.7 40 163.4 40 160 40 C160 49.9 160 59.8 160 70 C156.7 70 153.4 70 150 70 C150 66.7 150 63.4 150 60 C146.7 60 143.4 60 140 60 C140 66.6 140 73.2 140 80 C146.6 80 153.2 80 160 80 C160 83.3 160 86.6 160 90 C163.3 90 166.6 90 170 90 C170 93.3 170 96.6 170 100 C173.3 100 176.6 100 180 100 C180 93.4 180 86.8 180 80 C186.6 80 193.2 80 200 80 C200 83.3 200 86.6 200 90 C206.6 90 213.2 90 220 90 C220 86.7 220 83.4 220 80 C229.9 80 239.8 80 250 80 C250 86.6 250 93.2 250 100 C253.3 100 256.6 100 260 100 C260 109.9 260 119.8 260 130 C256.7 130 253.4 130 250 130 C250 123.4 250 116.8 250 110 C243.4 110 236.8 110 230 110 C230 123.2 230 136.4 230 150 C233.3 150 236.6 150 240 150 C240 156.6 240 163.2 240 170 C236.7 170 233.4 170 230 170 C230 166.7 230 163.4 230 160 C226.7 160 223.4 160 220 160 C220 163.3 220 166.6 220 170 C206.8 170 193.6 170 180 170 C180 173.3 180 176.6 180 180 C189.9 180 199.8 180 210 180 C210 183.3 210 186.6 210 190 C206.7 190 203.4 190 200 190 C200 196.6 200 203.2 200 210 C196.7 210 193.4 210 190 210 C190 206.7 190 203.4 190 200 C186.7 200 183.4 200 180 200 C180 196.7 180 193.4 180 190 C166.8 190 153.6 190 140 190 C140 193.3 140 196.6 140 200 C133.4 200 126.8 200 120 200 C120 203.3 120 206.6 120 210 C116.7 210 113.4 210 110 210 C110 216.6 110 223.2 110 230 C106.7 230 103.4 230 100 230 C100 226.7 100 223.4 100 220 C90.1 220 80.2 220 70 220 C70 223.3 70 226.6 70 230 C73.3 230 76.6 230 80 230 C80 233.3 80 236.6 80 240 C83.3 240 86.6 240 90 240 C90 243.3 90 246.6 90 250 C86.7 250 83.4 250 80 250 C80 253.3 80 256.6 80 260 C76.7 260 73.4 260 70 260 C70 263.3 70 266.6 70 270 C66.7 270 63.4 270 60 270 C60 273.3 60 276.6 60 280 C66.6 280 73.2 280 80 280 C80 283.3 80 286.6 80 290 C83.3 290 86.6 290 90 290 C90 283.4 90 276.8 90 270 C93.3 270 96.6 270 100 270 C100 279.9 100 289.8 100 300 C103.3 300 106.6 300 110 300 C110 303.3 110 306.6 110 310 C90.2 310 70.4 310 50 310 C50 316.6 50 323.2 50 330 C46.7 330 43.4 330 40 330 C40 336.6 40 343.2 40 350 C46.6 350 53.2 350 60 350 C60 353.3 60 356.6 60 360 C46.8 360 33.6 360 20 360 C20 363.3 20 366.6 20 370 C16.7 370 13.4 370 10 370 C10 366.7 10 363.4 10 360 C3.4 360 -3.2 360 -10 360 C-10 363.3 -10 366.6 -10 370 C-16.6 370 -23.2 370 -30 370 C-30 366.7 -30 363.4 -30 360 C-26.7 360 -23.4 360 -20 360 C-20 356.7 -20 353.4 -20 350 C-10.1 350 -0.2 350 10 350 C10 343.4 10 336.8 10 330 C6.7 330 3.4 330 0 330 C0 326.7 0 323.4 0 320 C6.6 320 13.2 320 20 320 C20 316.7 20 313.4 20 310 C16.7 310 13.4 310 10 310 C10 306.7 10 303.4 10 300 C6.7 300 3.4 300 0 300 C0 296.7 0 293.4 0 290 C-3.3 290 -6.6 290 -10 290 C-10 296.6 -10 303.2 -10 310 C-13.3 310 -16.6 310 -20 310 C-20 306.7 -20 303.4 -20 300 C-23.3 300 -26.6 300 -30 300 C-30 296.7 -30 293.4 -30 290 C-39.9 290 -49.8 290 -60 290 C-60 283.4 -60 276.8 -60 270 C-63.3 270 -66.6 270 -70 270 C-70 266.7 -70 263.4 -70 260 C-76.6 260 -83.2 260 -90 260 C-90 256.7 -90 253.4 -90 250 C-93.3 250 -96.6 250 -100 250 C-100 246.7 -100 243.4 -100 240 C-93.4 240 -86.8 240 -80 240 C-80 236.7 -80 233.4 -80 230 C-86.6 230 -93.2 230 -100 230 C-100 226.7 -100 223.4 -100 220 C-103.3 220 -106.6 220 -110 220 C-110 216.7 -110 213.4 -110 210 C-106.7 210 -103.4 210 -100 210 C-100 200.1 -100 190.2 -100 180 C-96.7 180 -93.4 180 -90 180 C-90 176.7 -90 173.4 -90 170 C-86.7 170 -83.4 170 -80 170 C-80 163.4 -80 156.8 -80 150 C-76.7 150 -73.4 150 -70 150 C-70 153.3 -70 156.6 -70 160 C-60.1 160 -50.2 160 -40 160 C-40 163.3 -40 166.6 -40 170 C-43.3 170 -46.6 170 -50 170 C-50 173.3 -50 176.6 -50 180 C-36.8 180 -23.6 180 -10 180 C-10 176.7 -10 173.4 -10 170 C3.2 170 16.4 170 30 170 C30 166.7 30 163.4 30 160 C23.4 160 16.8 160 10 160 C10 153.4 10 146.8 10 140 C6.7 140 3.4 140 0 140 C0 143.3 0 146.6 0 150 C-3.3 150 -6.6 150 -10 150 C-10 153.3 -10 156.6 -10 160 C-13.3 160 -16.6 160 -20 160 C-20 163.3 -20 166.6 -20 170 C-23.3 170 -26.6 170 -30 170 C-30 163.4 -30 156.8 -30 150 C-26.7 150 -23.4 150 -20 150 C-20 143.4 -20 136.8 -20 130 C-23.3 130 -26.6 130 -30 130 C-30 120.1 -30 110.2 -30 100 C-33.3 100 -36.6 100 -40 100 C-40 96.7 -40 93.4 -40 90 C-36.7 90 -33.4 90 -30 90 C-30 80.1 -30 70.2 -30 60 C-26.7 60 -23.4 60 -20 60 C-20 56.7 -20 53.4 -20 50 C-13.4 50 -6.8 50 0 50 C0 46.7 0 43.4 0 40 C-9.9 40 -19.8 40 -30 40 C-30 30.1 -30 20.2 -30 10 C-26.7 10 -23.4 10 -20 10 C-20 13.3 -20 16.6 -20 20 C-13.4 20 -6.8 20 0 20 C0 13.4 0 6.8 0 0 Z " fill="#000000" transform="translate(150,40)"/>
<path d="M0 0 C6.6 0 13.2 0 20 0 C20 3.3 20 6.6 20 10 C23.3 10 26.6 10 30 10 C30 13.3 30 16.6 30 20 C33.3 20 36.6 20 40 20 C40 13.4 40 6.8 40 0 C46.6 0 53.2 0 60 0 C60 3.3 60 6.6 60 10 C66.6 10 73.2 10 80 10 C80 6.7 80 3.4 80 0 C89.9 0 99.8 0 110 0 C110 6.6 110 13.2 110 20 C113.3 20 116.6 20 120 20 C120 29.9 120 39.8 120 50 C116.7 50 113.4 50 110 50 C110 43.4 110 36.8 110 30 C103.4 30 96.8 30 90 30 C90 43.2 90 56.4 90 70 C93.3 70 96.6 70 100 70 C100 76.6 100 83.2 100 90 C96.7 90 93.4 90 90 90 C90 86.7 90 83.4 90 80 C86.7 80 83.4 80 80 80 C80 83.3 80 86.6 80 90 C66.8 90 53.6 90 40 90 C40 93.3 40 96.6 40 100 C49.9 100 59.8 100 70 100 C70 103.3 70 106.6 70 110 C66.7 110 63.4 110 60 110 C60 116.6 60 123.2 60 130 C56.7 130 53.4 130 50 130 C50 126.7 50 123.4 50 120 C46.7 120 43.4 120 40 120 C40 116.7 40 113.4 40 110 C26.8 110 13.6 110 0 110 C0 113.3 0 116.6 0 120 C-6.6 120 -13.2 120 -20 120 C-20 123.3 -20 126.6 -20 130 C-23.3 130 -26.6 130 -30 130 C-30 136.6 -30 143.2 -30 150 C-33.3 150 -36.6 150 -40 150 C-40 146.7 -40 143.4 -40 140 C-49.9 140 -59.8 140 -70 140 C-70 143.3 -70 146.6 -70 150 C-66.7 150 -63.4 150 -60 150 C-60 153.3 -60 156.6 -60 160 C-56.7 160 -53.4 160 -50 160 C-50 163.3 -50 166.6 -50 170 C-53.3 170 -56.6 170 -60 170 C-60 173.3 -60 176.6 -60 180 C-63.3 180 -66.6 180 -70 180 C-70 183.3 -70 186.6 -70 190 C-73.3 190 -76.6 190 -80 190 C-80 193.3 -80 196.6 -80 200 C-73.4 200 -66.8 200 -60 200 C-60 203.3 -60 206.6 -60 210 C-56.7 210 -53.4 210 -50 210 C-50 203.4 -50 196.8 -50 190 C-46.7 190 -43.4 190 -40 190 C-40 199.9 -40 209.8 -40 220 C-36.7 220 -33.4 220 -30 220 C-30 223.3 -30 226.6 -30 230 C-49.8 230 -69.6 230 -90 230 C-90 236.6 -90 243.2 -90 250 C-93.3 250 -96.6 250 -100 250 C-100 256.6 -100 263.2 -100 270 C-93.4 270 -86.8 270 -80 270 C-80 273.3 -80 276.6 -80 280 C-93.2 280 -106.4 280 -120 280 C-120 283.3 -120 286.6 -120 290 C-123.3 290 -126.6 290 -130 290 C-130 286.7 -130 283.4 -130 280 C-136.6 280 -143.2 280 -150 280 C-150 283.3 -150 286.6 -150 290 C-156.6 290 -163.2 290 -170 290 C-170 286.7 -170 283.4 -170 280 C-166.7 280 -163.4 280 -160 280 C-160 276.7 -160 273.4 -160 270 C-150.1 270 -140.2 270 -130 270 C-130 263.4 -130 256.8 -130 250 C-133.3 250 -136.6 250 -140 250 C-140 246.7 -140 243.4 -140 240 C-133.4 240 -126.8 240 -120 240 C-120 236.7 -120 233.4 -120 230 C-123.3 230 -126.6 230 -130 230 C-130 226.7 -130 223.4 -130 220 C-133.3 220 -136.6 220 -140 220 C-140 216.7 -140 213.4 -140 210 C-143.3 210 -146.6 210 -150 210 C-150 216.6 -150 223.2 -150 230 C-153.3 230 -156.6 230 -160 230 C-160 226.7 -160 223.4 -160 220 C-163.3 220 -166.6 220 -170 220 C-170 216.7 -170 213.4 -170 210 C-166.7 210 -163.4 210 -160 210 C-160 206.7 -160 203.4 -160 200 C-156.7 200 -153.4 200 -150 200 C-150 196.7 -150 193.4 -150 190 C-143.4 190 -136.8 190 -130 190 C-130 186.7 -130 183.4 -130 180 C-126.7 180 -123.4 180 -120 180 C-120 176.7 -120 173.4 -120 170 C-123.3 170 -126.6 170 -130 170 C-130 166.7 -130 163.4 -130 160 C-126.7 160 -123.4 160 -120 160 C-120 156.7 -120 153.4 -120 150 C-123.3 150 -126.6 150 -130 150 C-130 146.7 -130 143.4 -130 140 C-123.4 140 -116.8 140 -110 140 C-110 149.9 -110 159.8 -110 170 C-106.7 170 -103.4 170 -100 170 C-100 173.3 -100 176.6 -100 180 C-93.4 180 -86.8 180 -80 180 C-80 160.2 -80 140.4 -80 120 C-76.7 120 -73.4 120 -70 120 C-70 123.3 -70 126.6 -70 130 C-63.4 130 -56.8 130 -50 130 C-50 123.4 -50 116.8 -50 110 C-53.3 110 -56.6 110 -60 110 C-60 106.7 -60 103.4 -60 100 C-56.7 100 -53.4 100 -50 100 C-50 96.7 -50 93.4 -50 90 C-43.4 90 -36.8 90 -30 90 C-30 83.4 -30 76.8 -30 70 C-36.6 70 -43.2 70 -50 70 C-50 60.1 -50 50.2 -50 40 C-56.6 40 -63.2 40 -70 40 C-70 36.7 -70 33.4 -70 30 C-60.1 30 -50.2 30 -40 30 C-40 39.9 -40 49.8 -40 60 C-36.7 60 -33.4 60 -30 60 C-30 53.4 -30 46.8 -30 40 C-23.4 40 -16.8 40 -10 40 C-10 43.3 -10 46.6 -10 50 C-3.4 50 3.2 50 10 50 C10 46.7 10 43.4 10 40 C13.3 40 16.6 40 20 40 C20 33.4 20 26.8 20 20 C13.4 20 6.8 20 0 20 C0 13.4 0 6.8 0 0 Z " fill="#000000" transform="translate(290,120)"/>
<path d="M0 0 C3.3 0 6.6 0 10 0 C10 3.3 10 6.6 10 10 C13.3 10 16.6 10 20 10 C20 13.3 20 16.6 20 20 C23.3 20 26.6 20 30 20 C30 26.6 30 33.2 30 40 C33.3 40 36.6 40 40 40 C40 43.3 40 46.6 40 50 C33.4 50 26.8 50 20 50 C20 46.7 20 43.4 20 40 C16.7 40 13.4 40 10 40 C10 49.9 10 59.8 10 70 C13.3 70 16.6 70 20 70 C20 73.3 20 76.6 20 80 C26.6 80 33.2 80 40 80 C40 73.4 40 66.8 40 60 C43.3 60 46.6 60 50 60 C50 63.3 50 66.6 50 70 C53.3 70 56.6 70 60 70 C60 63.4 60 56.8 60 50 C66.6 50 73.2 50 80 50 C80 53.3 80 56.6 80 60 C86.6 60 93.2 60 100 60 C100 66.6 100 73.2 100 80 C96.7 80 93.4 80 90 80 C90 86.6 90 93.2 90 100 C93.3 100 96.6 100 100 100 C100 123.1 100 146.2 100 170 C96.7 170 93.4 170 90 170 C90 163.4 90 156.8 90 150 C86.7 150 83.4 150 80 150 C80 146.7 80 143.4 80 140 C76.7 140 73.4 140 70 140 C70 143.3 70 146.6 70 150 C66.7 150 63.4 150 60 150 C60 143.4 60 136.8 60 130 C53.4 130 46.8 130 40 130 C40 133.3 40 136.6 40 140 C33.4 140 26.8 140 20 140 C20 143.3 20 146.6 20 150 C26.6 150 33.2 150 40 150 C40 153.3 40 156.6 40 160 C43.3 160 46.6 160 50 160 C50 163.3 50 166.6 50 170 C43.4 170 36.8 170 30 170 C30 166.7 30 163.4 30 160 C26.7 160 23.4 160 20 160 C20 163.3 20 166.6 20 170 C10.1 170 0.2 170 -10 170 C-10 166.7 -10 163.4 -10 160 C-6.7 160 -3.4 160 0 160 C0 156.7 0 153.4 0 150 C3.3 150 6.6 150 10 150 C10 146.7 10 143.4 10 140 C6.7 140 3.4 140 0 140 C0 136.7 0 133.4 0 130 C-6.6 130 -13.2 130 -20 130 C-20 133.3 -20 136.6 -20 140 C-16.7 140 -13.4 140 -10 140 C-10 143.3 -10 146.6 -10 150 C-16.6 150 -23.2 150 -30 150 C-30 146.7 -30 143.4 -30 140 C-33.3 140 -36.6 140 -40 140 C-40 136.7 -40 133.4 -40 130 C-36.7 130 -33.4 130 -30 130 C-30 126.7 -30 123.4 -30 120 C-23.4 120 -16.8 120 -10 120 C-10 110.1 -10 100.2 -10 90 C-6.7 90 -3.4 90 0 90 C0 86.7 0 83.4 0 80 C-3.3 80 -6.6 80 -10 80 C-10 76.7 -10 73.4 -10 70 C-13.3 70 -16.6 70 -20 70 C-20 66.7 -20 63.4 -20 60 C-13.4 60 -6.8 60 0 60 C0 53.4 0 46.8 0 40 C-3.3 40 -6.6 40 -10 40 C-10 33.4 -10 26.8 -10 20 C-6.7 20 -3.4 20 0 20 C0 13.4 0 6.8 0 0 Z " fill="#000000" transform="translate(310,240)"/>
<path d="M0 0 C6.6 0 13.2 0 20 0 C20 3.3 20 6.6 20 10 C23.3 10 26.6 10 30 10 C30 13.3 30 16.6 30 20 C33.3 20 36.6 20 40 20 C40 13.4 40 6.8 40 0 C46.6 0 53.2 0 60 0 C60 3.3 60 6.6 60 10 C66.6 10 73.2 10 80 10 C80 6.7 80 3.4 80 0 C89.9 0 99.8 0 110 0 C110 6.6 110 13.2 110 20 C113.3 20 116.6 20 120 20 C120 29.9 120 39.8 120 50 C116.7 50 113.4 50 110 50 C110 43.4 110 36.8 110 30 C103.4 30 96.8 30 90 30 C90 43.2 90 56.4 90 70 C93.3 70 96.6 70 100 70 C100 76.6 100 83.2 100 90 C96.7 90 93.4 90 90 90 C90 86.7 90 83.4 90 80 C86.7 80 83.4 80 80 80 C80 83.3 80 86.6 80 90 C60.2 90 40.4 90 20 90 C20 93.3 20 96.6 20 100 C13.4 100 6.8 100 0 100 C0 96.7 0 93.4 0 90 C-9.9 90 -19.8 90 -30 90 C-30 83.4 -30 76.8 -30 70 C-36.6 70 -43.2 70 -50 70 C-50 60.1 -50 50.2 -50 40 C-56.6 40 -63.2 40 -70 40 C-70 36.7 -70 33.4 -70 30 C-60.1 30 -50.2 30 -40 30 C-40 39.9 -40 49.8 -40 60 C-36.7 60 -33.4 60 -30 60 C-30 53.4 -30 46.8 -30 40 C-23.4 40 -16.8 40 -10 40 C-10 43.3 -10 46.6 -10 50 C-3.4 50 3.2 50 10 50 C10 46.7 10 43.4 10 40 C13.3 40 16.6 40 20 40 C20 33.4 20 26.8 20 20 C13.4 20 6.8 20 0 20 C0 13.4 0 6.8 0 0 Z " fill="#000000" transform="translate(290,120)"/>
<path d="M0 0 C3.3 0 6.6 0 10 0 C10 3.3 10 6.6 10 10 C16.6 10 23.2 10 30 10 C30 16.6 30 23.2 30 30 C26.7 30 23.4 30 20 30 C20 26.7 20 23.4 20 20 C16.7 20 13.4 20 10 20 C10 29.9 10 39.8 10 50 C13.3 50 16.6 50 20 50 C20 46.7 20 43.4 20 40 C26.6 40 33.2 40 40 40 C40 46.6 40 53.2 40 60 C46.6 60 53.2 60 60 60 C60 66.6 60 73.2 60 80 C56.7 80 53.4 80 50 80 C50 83.3 50 86.6 50 90 C43.4 90 36.8 90 30 90 C30 86.7 30 83.4 30 80 C23.4 80 16.8 80 10 80 C10 86.6 10 93.2 10 100 C6.7 100 3.4 100 0 100 C0 90.1 0 80.2 0 70 C-9.9 70 -19.8 70 -30 70 C-30 73.3 -30 76.6 -30 80 C-23.4 80 -16.8 80 -10 80 C-10 89.9 -10 99.8 -10 110 C-3.4 110 3.2 110 10 110 C10 116.6 10 123.2 10 130 C3.4 130 -3.2 130 -10 130 C-10 133.3 -10 136.6 -10 140 C-13.3 140 -16.6 140 -20 140 C-20 143.3 -20 146.6 -20 150 C-23.3 150 -26.6 150 -30 150 C-30 143.4 -30 136.8 -30 130 C-36.6 130 -43.2 130 -50 130 C-50 136.6 -50 143.2 -50 150 C-53.3 150 -56.6 150 -60 150 C-60 136.8 -60 123.6 -60 110 C-56.7 110 -53.4 110 -50 110 C-50 113.3 -50 116.6 -50 120 C-46.7 120 -43.4 120 -40 120 C-40 113.4 -40 106.8 -40 100 C-43.3 100 -46.6 100 -50 100 C-50 96.7 -50 93.4 -50 90 C-46.7 90 -43.4 90 -40 90 C-40 86.7 -40 83.4 -40 80 C-56.5 80 -73 80 -90 80 C-90 66.8 -90 53.6 -90 40 C-93.3 40 -96.6 40 -100 40 C-100 33.4 -100 26.8 -100 20 C-96.7 20 -93.4 20 -90 20 C-90 23.3 -90 26.6 -90 30 C-86.7 30 -83.4 30 -80 30 C-80 33.3 -80 36.6 -80 40 C-76.7 40 -73.4 40 -70 40 C-70 49.9 -70 59.8 -70 70 C-60.1 70 -50.2 70 -40 70 C-40 66.7 -40 63.4 -40 60 C-33.4 60 -26.8 60 -20 60 C-20 56.7 -20 53.4 -20 50 C-26.6 50 -33.2 50 -40 50 C-40 46.7 -40 43.4 -40 40 C-33.4 40 -26.8 40 -20 40 C-20 33.4 -20 26.8 -20 20 C-23.3 20 -26.6 20 -30 20 C-30 16.7 -30 13.4 -30 10 C-20.1 10 -10.2 10 0 10 C0 6.7 0 3.4 0 0 Z " fill="#FFFFFF" transform="translate(250,80)"/>
<path d="M0 0 C16.5 0 33 0 50 0 C50 6.6 50 13.2 50 20 C53.3 20 56.6 20 60 20 C60 23.3 60 26.6 60 30 C63.3 30 66.6 30 70 30 C70 33.3 70 36.6 70 40 C76.6 40 83.2 40 90 40 C90 36.7 90 33.4 90 30 C93.3 30 96.6 30 100 30 C100 26.7 100 23.4 100 20 C103.3 20 106.6 20 110 20 C110 23.3 110 26.6 110 30 C113.3 30 116.6 30 120 30 C120 33.3 120 36.6 120 40 C116.7 40 113.4 40 110 40 C110 49.9 110 59.8 110 70 C106.7 70 103.4 70 100 70 C100 66.7 100 63.4 100 60 C96.7 60 93.4 60 90 60 C90 66.6 90 73.2 90 80 C83.4 80 76.8 80 70 80 C70 83.3 70 86.6 70 90 C66.7 90 63.4 90 60 90 C60 80.1 60 70.2 60 60 C63.3 60 66.6 60 70 60 C70 63.3 70 66.6 70 70 C73.3 70 76.6 70 80 70 C80 63.4 80 56.8 80 50 C73.4 50 66.8 50 60 50 C60 46.7 60 43.4 60 40 C56.7 40 53.4 40 50 40 C50 43.3 50 46.6 50 50 C40.1 50 30.2 50 20 50 C20 53.3 20 56.6 20 60 C23.3 60 26.6 60 30 60 C30 66.6 30 73.2 30 80 C23.4 80 16.8 80 10 80 C10 83.3 10 86.6 10 90 C16.6 90 23.2 90 30 90 C30 93.3 30 96.6 30 100 C23.4 100 16.8 100 10 100 C10 103.3 10 106.6 10 110 C0.1 110 -9.8 110 -20 110 C-20 100.1 -20 90.2 -20 80 C-23.3 80 -26.6 80 -30 80 C-30 76.7 -30 73.4 -30 70 C-26.7 70 -23.4 70 -20 70 C-20 66.7 -20 63.4 -20 60 C-16.7 60 -13.4 60 -10 60 C-10 66.6 -10 73.2 -10 80 C-6.7 80 -3.4 80 0 80 C0 73.4 0 66.8 0 60 C3.3 60 6.6 60 10 60 C10 50.1 10 40.2 10 30 C6.7 30 3.4 30 0 30 C0 20.1 0 10.2 0 0 Z " fill="#000000" transform="translate(200,40)"/>
<path d="M0 0 C6.6 0 13.2 0 20 0 C20 3.3 20 6.6 20 10 C23.3 10 26.6 10 30 10 C30 13.3 30 16.6 30 20 C33.3 20 36.6 20 40 20 C40 16.7 40 13.4 40 10 C63.1 10 86.2 10 110 10 C110 6.7 110 3.4 110 0 C116.6 0 123.2 0 130 0 C130 19.8 130 39.6 130 60 C123.4 60 116.8 60 110 60 C110 56.7 110 53.4 110 50 C106.7 50 103.4 50 100 50 C100 40.1 100 30.2 100 20 C93.4 20 86.8 20 80 20 C80 23.3 80 26.6 80 30 C83.3 30 86.6 30 90 30 C90 33.3 90 36.6 90 40 C86.7 40 83.4 40 80 40 C80 43.3 80 46.6 80 50 C83.3 50 86.6 50 90 50 C90 53.3 90 56.6 90 60 C86.7 60 83.4 60 80 60 C80 63.3 80 66.6 80 70 C73.4 70 66.8 70 60 70 C60 73.3 60 76.6 60 80 C56.7 80 53.4 80 50 80 C50 83.3 50 86.6 50 90 C46.7 90 43.4 90 40 90 C40 86.7 40 83.4 40 80 C33.4 80 26.8 80 20 80 C20 76.7 20 73.4 20 70 C26.6 70 33.2 70 40 70 C40 63.4 40 56.8 40 50 C43.3 50 46.6 50 50 50 C50 43.4 50 36.8 50 30 C43.4 30 36.8 30 30 30 C30 33.3 30 36.6 30 40 C26.7 40 23.4 40 20 40 C20 36.7 20 33.4 20 30 C16.7 30 13.4 30 10 30 C10 23.4 10 16.8 10 10 C6.7 10 3.4 10 0 10 C0 6.7 0 3.4 0 0 Z " fill="#FFFFFF" transform="translate(80,240)"/>
<path d="M0 0 C3.3 0 6.6 0 10 0 C10 3.3 10 6.6 10 10 C19.9 10 29.8 10 40 10 C40 13.3 40 16.6 40 20 C36.7 20 33.4 20 30 20 C30 23.3 30 26.6 30 30 C26.7 30 23.4 30 20 30 C20 26.7 20 23.4 20 20 C16.7 20 13.4 20 10 20 C10 26.6 10 33.2 10 40 C16.6 40 23.2 40 30 40 C30 43.3 30 46.6 30 50 C23.4 50 16.8 50 10 50 C10 53.3 10 56.6 10 60 C13.3 60 16.6 60 20 60 C20 66.6 20 73.2 20 80 C23.3 80 26.6 80 30 80 C30 83.3 30 86.6 30 90 C33.3 90 36.6 90 40 90 C40 86.7 40 83.4 40 80 C46.6 80 53.2 80 60 80 C60 86.6 60 93.2 60 100 C56.7 100 53.4 100 50 100 C50 106.6 50 113.2 50 120 C43.4 120 36.8 120 30 120 C30 123.3 30 126.6 30 130 C36.6 130 43.2 130 50 130 C50 133.3 50 136.6 50 140 C40.1 140 30.2 140 20 140 C20 133.4 20 126.8 20 120 C16.7 120 13.4 120 10 120 C10 116.7 10 113.4 10 110 C3.4 110 -3.2 110 -10 110 C-10 106.7 -10 103.4 -10 100 C-13.3 100 -16.6 100 -20 100 C-20 96.7 -20 93.4 -20 90 C-13.4 90 -6.8 90 0 90 C0 86.7 0 83.4 0 80 C-6.6 80 -13.2 80 -20 80 C-20 76.7 -20 73.4 -20 70 C-23.3 70 -26.6 70 -30 70 C-30 66.7 -30 63.4 -30 60 C-26.7 60 -23.4 60 -20 60 C-20 50.1 -20 40.2 -20 30 C-16.7 30 -13.4 30 -10 30 C-10 26.7 -10 23.4 -10 20 C-6.7 20 -3.4 20 0 20 C0 13.4 0 6.8 0 0 Z " fill="#000000" transform="translate(70,190)"/>
<path d="M0 0 C23.1 0 46.2 0 70 0 C70 23.1 70 46.2 70 70 C46.9 70 23.8 70 0 70 C0 46.9 0 23.8 0 0 Z " fill="#FFFFFF" transform="translate(40,340)"/>
<path d="M0 0 C23.1 0 46.2 0 70 0 C70 23.1 70 46.2 70 70 C46.9 70 23.8 70 0 70 C0 46.9 0 23.8 0 0 Z " fill="#FFFFFF" transform="translate(340,40)"/>
<path d="M0 0 C23.1 0 46.2 0 70 0 C70 23.1 70 46.2 70 70 C46.9 70 23.8 70 0 70 C0 46.9 0 23.8 0 0 Z " fill="#FFFFFF" transform="translate(40,40)"/>
<path d="M0 0 C3.3 0 6.6 0 10 0 C10 3.3 10 6.6 10 10 C19.9 10 29.8 10 40 10 C40 16.6 40 23.2 40 30 C36.7 30 33.4 30 30 30 C30 33.3 30 36.6 30 40 C36.6 40 43.2 40 50 40 C50 53.2 50 66.4 50 80 C46.7 80 43.4 80 40 80 C40 73.4 40 66.8 40 60 C36.7 60 33.4 60 30 60 C30 63.3 30 66.6 30 70 C23.4 70 16.8 70 10 70 C10 66.7 10 63.4 10 60 C6.7 60 3.4 60 0 60 C0 69.9 0 79.8 0 90 C-3.3 90 -6.6 90 -10 90 C-10 86.7 -10 83.4 -10 80 C-13.3 80 -16.6 80 -20 80 C-20 70.1 -20 60.2 -20 50 C-13.4 50 -6.8 50 0 50 C0 46.7 0 43.4 0 40 C-9.9 40 -19.8 40 -30 40 C-30 30.1 -30 20.2 -30 10 C-26.7 10 -23.4 10 -20 10 C-20 13.3 -20 16.6 -20 20 C-13.4 20 -6.8 20 0 20 C0 13.4 0 6.8 0 0 Z " fill="#000000" transform="translate(150,40)"/>
<path d="M0 0 C9.9 0 19.8 0 30 0 C30 9.9 30 19.8 30 30 C26.7 30 23.4 30 20 30 C20 33.3 20 36.6 20 40 C23.3 40 26.6 40 30 40 C30 43.3 30 46.6 30 50 C23.4 50 16.8 50 10 50 C10 59.9 10 69.8 10 80 C6.7 80 3.4 80 0 80 C0 73.4 0 66.8 0 60 C-6.6 60 -13.2 60 -20 60 C-20 66.6 -20 73.2 -20 80 C-23.3 80 -26.6 80 -30 80 C-30 76.7 -30 73.4 -30 70 C-36.6 70 -43.2 70 -50 70 C-50 66.7 -50 63.4 -50 60 C-46.7 60 -43.4 60 -40 60 C-40 56.7 -40 53.4 -40 50 C-36.7 50 -33.4 50 -30 50 C-30 46.7 -30 43.4 -30 40 C-26.7 40 -23.4 40 -20 40 C-20 36.7 -20 33.4 -20 30 C-23.3 30 -26.6 30 -30 30 C-30 26.7 -30 23.4 -30 20 C-33.3 20 -36.6 20 -40 20 C-40 16.7 -40 13.4 -40 10 C-30.1 10 -20.2 10 -10 10 C-10 13.3 -10 16.6 -10 20 C-6.7 20 -3.4 20 0 20 C0 13.4 0 6.8 0 0 Z " fill="#FFFFFF" transform="translate(260,250)"/>
<path d="M0 0 C3.3 0 6.6 0 10 0 C10 3.3 10 6.6 10 10 C13.3 10 16.6 10 20 10 C20 13.3 20 16.6 20 20 C16.7 20 13.4 20 10 20 C10 23.3 10 26.6 10 30 C6.7 30 3.4 30 0 30 C0 33.3 0 36.6 0 40 C-3.3 40 -6.6 40 -10 40 C-10 46.6 -10 53.2 -10 60 C-13.3 60 -16.6 60 -20 60 C-20 66.6 -20 73.2 -20 80 C-23.3 80 -26.6 80 -30 80 C-30 73.4 -30 66.8 -30 60 C-33.3 60 -36.6 60 -40 60 C-40 56.7 -40 53.4 -40 50 C-43.3 50 -46.6 50 -50 50 C-50 46.7 -50 43.4 -50 40 C-53.3 40 -56.6 40 -60 40 C-60 46.6 -60 53.2 -60 60 C-63.3 60 -66.6 60 -70 60 C-70 66.6 -70 73.2 -70 80 C-66.7 80 -63.4 80 -60 80 C-60 86.6 -60 93.2 -60 100 C-66.6 100 -73.2 100 -80 100 C-80 96.7 -80 93.4 -80 90 C-83.3 90 -86.6 90 -90 90 C-90 86.7 -90 83.4 -90 80 C-86.7 80 -83.4 80 -80 80 C-80 70.1 -80 60.2 -80 50 C-86.6 50 -93.2 50 -100 50 C-100 46.7 -100 43.4 -100 40 C-93.4 40 -86.8 40 -80 40 C-80 36.7 -80 33.4 -80 30 C-66.8 30 -53.6 30 -40 30 C-40 33.3 -40 36.6 -40 40 C-36.7 40 -33.4 40 -30 40 C-30 43.3 -30 46.6 -30 50 C-26.7 50 -23.4 50 -20 50 C-20 43.4 -20 36.8 -20 30 C-16.7 30 -13.4 30 -10 30 C-10 26.7 -10 23.4 -10 20 C-19.9 20 -29.8 20 -40 20 C-40 16.7 -40 13.4 -40 10 C-26.8 10 -13.6 10 0 10 C0 6.7 0 3.4 0 0 Z " fill="#FFFFFF" transform="translate(370,200)"/>
<path d="M0 0 C6.6 0 13.2 0 20 0 C20 9.9 20 19.8 20 30 C23.3 30 26.6 30 30 30 C30 36.6 30 43.2 30 50 C33.3 50 36.6 50 40 50 C40 53.3 40 56.6 40 60 C36.7 60 33.4 60 30 60 C30 63.3 30 66.6 30 70 C23.4 70 16.8 70 10 70 C10 73.3 10 76.6 10 80 C3.4 80 -3.2 80 -10 80 C-10 76.7 -10 73.4 -10 70 C-13.3 70 -16.6 70 -20 70 C-20 76.6 -20 83.2 -20 90 C-23.3 90 -26.6 90 -30 90 C-30 86.7 -30 83.4 -30 80 C-33.3 80 -36.6 80 -40 80 C-40 76.7 -40 73.4 -40 70 C-36.7 70 -33.4 70 -30 70 C-30 66.7 -30 63.4 -30 60 C-26.7 60 -23.4 60 -20 60 C-20 56.7 -20 53.4 -20 50 C-13.4 50 -6.8 50 0 50 C0 46.7 0 43.4 0 40 C3.3 40 6.6 40 10 40 C10 36.7 10 33.4 10 30 C6.7 30 3.4 30 0 30 C0 26.7 0 23.4 0 20 C3.3 20 6.6 20 10 20 C10 16.7 10 13.4 10 10 C6.7 10 3.4 10 0 10 C0 6.7 0 3.4 0 0 Z " fill="#FFFFFF" transform="translate(160,260)"/>
<path d="M0 0 C23.1 0 46.2 0 70 0 C70 23.1 70 46.2 70 70 C46.9 70 23.8 70 0 70 C0 46.9 0 23.8 0 0 Z M10 10 C10 26.5 10 43 10 60 C26.5 60 43 60 60 60 C60 43.5 60 27 60 10 C43.5 10 27 10 10 10 Z " fill="#000000" transform="translate(40,340)"/>
<path d="M0 0 C23.1 0 46.2 0 70 0 C70 23.1 70 46.2 70 70 C46.9 70 23.8 70 0 70 C0 46.9 0 23.8 0 0 Z M10 10 C10 26.5 10 43 10 60 C26.5 60 43 60 60 60 C60 43.5 60 27 60 10 C43.5 10 27 10 10 10 Z " fill="#000000" transform="translate(340,40)"/>
<path d="M0 0 C23.1 0 46.2 0 70 0 C70 23.1 70 46.2 70 70 C46.9 70 23.8 70 0 70 C0 46.9 0 23.8 0 0 Z M10 10 C10 26.5 10 43 10 60 C26.5 60 43 60 60 60 C60 43.5 60 27 60 10 C43.5 10 27 10 10 10 Z " fill="#000000" transform="translate(40,40)"/>
<path d="M0 0 C6.6 0 13.2 0 20 0 C20 3.3 20 6.6 20 10 C26.6 10 33.2 10 40 10 C40 6.7 40 3.4 40 0 C46.6 0 53.2 0 60 0 C60 3.3 60 6.6 60 10 C69.9 10 79.8 10 90 10 C90 13.3 90 16.6 90 20 C86.7 20 83.4 20 80 20 C80 26.6 80 33.2 80 40 C76.7 40 73.4 40 70 40 C70 36.7 70 33.4 70 30 C66.7 30 63.4 30 60 30 C60 26.7 60 23.4 60 20 C46.8 20 33.6 20 20 20 C20 23.3 20 26.6 20 30 C13.4 30 6.8 30 0 30 C0 33.3 0 36.6 0 40 C-3.3 40 -6.6 40 -10 40 C-10 33.4 -10 26.8 -10 20 C-6.7 20 -3.4 20 0 20 C0 13.4 0 6.8 0 0 Z " fill="#000000" transform="translate(270,210)"/>
<path d="M0 0 C3.3 0 6.6 0 10 0 C10 6.6 10 13.2 10 20 C13.3 20 16.6 20 20 20 C20 13.4 20 6.8 20 0 C23.3 0 26.6 0 30 0 C30 3.3 30 6.6 30 10 C33.3 10 36.6 10 40 10 C40 6.7 40 3.4 40 0 C43.3 0 46.6 0 50 0 C50 6.6 50 13.2 50 20 C43.4 20 36.8 20 30 20 C30 23.3 30 26.6 30 30 C36.6 30 43.2 30 50 30 C50 33.3 50 36.6 50 40 C43.4 40 36.8 40 30 40 C30 43.3 30 46.6 30 50 C20.1 50 10.2 50 0 50 C0 40.1 0 30.2 0 20 C-3.3 20 -6.6 20 -10 20 C-10 16.7 -10 13.4 -10 10 C-6.7 10 -3.4 10 0 10 C0 6.7 0 3.4 0 0 Z " fill="#000000" transform="translate(180,100)"/>
<path d="M0 0 C6.6 0 13.2 0 20 0 C20 9.9 20 19.8 20 30 C23.3 30 26.6 30 30 30 C30 23.4 30 16.8 30 10 C33.3 10 36.6 10 40 10 C40 16.6 40 23.2 40 30 C46.6 30 53.2 30 60 30 C60 33.3 60 36.6 60 40 C46.8 40 33.6 40 20 40 C20 43.3 20 46.6 20 50 C16.7 50 13.4 50 10 50 C10 46.7 10 43.4 10 40 C3.4 40 -3.2 40 -10 40 C-10 43.3 -10 46.6 -10 50 C-16.6 50 -23.2 50 -30 50 C-30 46.7 -30 43.4 -30 40 C-26.7 40 -23.4 40 -20 40 C-20 36.7 -20 33.4 -20 30 C-10.1 30 -0.2 30 10 30 C10 23.4 10 16.8 10 10 C6.7 10 3.4 10 0 10 C0 6.7 0 3.4 0 0 Z " fill="#000000" transform="translate(150,360)"/>
<path d="M0 0 C16.5 0 33 0 50 0 C50 9.9 50 19.8 50 30 C46.7 30 43.4 30 40 30 C40 33.3 40 36.6 40 40 C33.4 40 26.8 40 20 40 C20 36.7 20 33.4 20 30 C13.4 30 6.8 30 0 30 C0 20.1 0 10.2 0 0 Z " fill="#FFFFFF" transform="translate(200,40)"/>
<path d="M0 0 C9.9 0 19.8 0 30 0 C30 3.3 30 6.6 30 10 C26.7 10 23.4 10 20 10 C20 19.9 20 29.8 20 40 C16.7 40 13.4 40 10 40 C10 36.7 10 33.4 10 30 C6.7 30 3.4 30 0 30 C0 33.3 0 36.6 0 40 C-9.9 40 -19.8 40 -30 40 C-30 30.1 -30 20.2 -30 10 C-26.7 10 -23.4 10 -20 10 C-20 13.3 -20 16.6 -20 20 C-16.7 20 -13.4 20 -10 20 C-10 16.7 -10 13.4 -10 10 C-6.7 10 -3.4 10 0 10 C0 6.7 0 3.4 0 0 Z " fill="#FFFFFF" transform="translate(350,140)"/>
<path d="M0 0 C3.3 0 6.6 0 10 0 C10 3.3 10 6.6 10 10 C13.3 10 16.6 10 20 10 C20 13.3 20 16.6 20 20 C23.3 20 26.6 20 30 20 C30 23.3 30 26.6 30 30 C23.4 30 16.8 30 10 30 C10 36.6 10 43.2 10 50 C0.1 50 -9.8 50 -20 50 C-20 43.4 -20 36.8 -20 30 C-16.7 30 -13.4 30 -10 30 C-10 23.4 -10 16.8 -10 10 C-6.7 10 -3.4 10 0 10 C0 6.7 0 3.4 0 0 Z " fill="#000000" transform="translate(370,230)"/>
<path d="M0 0 C3.3 0 6.6 0 10 0 C10 3.3 10 6.6 10 10 C13.3 10 16.6 10 20 10 C20 13.3 20 16.6 20 20 C23.3 20 26.6 20 30 20 C30 26.6 30 33.2 30 40 C33.3 40 36.6 40 40 40 C40 43.3 40 46.6 40 50 C33.4 50 26.8 50 20 50 C20 46.7 20 43.4 20 40 C10.1 40 0.2 40 -10 40 C-10 33.4 -10 26.8 -10 20 C-6.7 20 -3.4 20 0 20 C0 13.4 0 6.8 0 0 Z " fill="#000000" transform="translate(310,240)"/>
<path d="M0 0 C9.9 0 19.8 0 30 0 C30 6.6 30 13.2 30 20 C33.3 20 36.6 20 40 20 C40 29.9 40 39.8 40 50 C36.7 50 33.4 50 30 50 C30 43.4 30 36.8 30 30 C23.4 30 16.8 30 10 30 C10 26.7 10 23.4 10 20 C0.1 20 -9.8 20 -20 20 C-20 16.7 -20 13.4 -20 10 C-13.4 10 -6.8 10 0 10 C0 6.7 0 3.4 0 0 Z " fill="#000000" transform="translate(370,120)"/>
<path d="M0 0 C3.3 0 6.6 0 10 0 C10 6.6 10 13.2 10 20 C6.7 20 3.4 20 0 20 C0 26.6 0 33.2 0 40 C-3.3 40 -6.6 40 -10 40 C-10 36.7 -10 33.4 -10 30 C-13.3 30 -16.6 30 -20 30 C-20 36.6 -20 43.2 -20 50 C-23.3 50 -26.6 50 -30 50 C-30 46.7 -30 43.4 -30 40 C-33.3 40 -36.6 40 -40 40 C-40 36.7 -40 33.4 -40 30 C-36.7 30 -33.4 30 -30 30 C-30 26.7 -30 23.4 -30 20 C-26.7 20 -23.4 20 -20 20 C-20 16.7 -20 13.4 -20 10 C-13.4 10 -6.8 10 0 10 C0 6.7 0 3.4 0 0 Z " fill="#000000" transform="translate(160,300)"/>
<path d="M0 0 C3.3 0 6.6 0 10 0 C10 6.6 10 13.2 10 20 C13.3 20 16.6 20 20 20 C20 23.3 20 26.6 20 30 C16.7 30 13.4 30 10 30 C10 39.9 10 49.8 10 60 C6.7 60 3.4 60 0 60 C0 56.7 0 53.4 0 50 C-3.3 50 -6.6 50 -10 50 C-10 46.7 -10 43.4 -10 40 C-6.7 40 -3.4 40 0 40 C0 36.7 0 33.4 0 30 C-3.3 30 -6.6 30 -10 30 C-10 23.4 -10 16.8 -10 10 C-6.7 10 -3.4 10 0 10 C0 6.7 0 3.4 0 0 Z " fill="#000000" transform="translate(80,130)"/>
<path d="M0 0 C9.9 0 19.8 0 30 0 C30 9.9 30 19.8 30 30 C20.1 30 10.2 30 0 30 C0 20.1 0 10.2 0 0 Z " fill="#000000" transform="translate(60,360)"/>
<path d="M0 0 C9.9 0 19.8 0 30 0 C30 9.9 30 19.8 30 30 C20.1 30 10.2 30 0 30 C0 20.1 0 10.2 0 0 Z " fill="#FFFFFF" transform="translate(330,330)"/>
<path d="M0 0 C6.6 0 13.2 0 20 0 C20 9.9 20 19.8 20 30 C16.7 30 13.4 30 10 30 C10 33.3 10 36.6 10 40 C13.3 40 16.6 40 20 40 C20 43.3 20 46.6 20 50 C13.4 50 6.8 50 0 50 C0 46.7 0 43.4 0 40 C-3.3 40 -6.6 40 -10 40 C-10 36.7 -10 33.4 -10 30 C-6.7 30 -3.4 30 0 30 C0 26.7 0 23.4 0 20 C3.3 20 6.6 20 10 20 C10 16.7 10 13.4 10 10 C6.7 10 3.4 10 0 10 C0 6.7 0 3.4 0 0 Z " fill="#000000" transform="translate(270,250)"/>
<path d="M0 0 C9.9 0 19.8 0 30 0 C30 9.9 30 19.8 30 30 C20.1 30 10.2 30 0 30 C0 20.1 0 10.2 0 0 Z " fill="#000000" transform="translate(360,60)"/>
<path d="M0 0 C9.9 0 19.8 0 30 0 C30 9.9 30 19.8 30 30 C20.1 30 10.2 30 0 30 C0 20.1 0 10.2 0 0 Z " fill="#000000" transform="translate(60,60)"/>
<path d="M0 0 C3.3 0 6.6 0 10 0 C10 3.3 10 6.6 10 10 C13.3 10 16.6 10 20 10 C20 19.9 20 29.8 20 40 C16.7 40 13.4 40 10 40 C10 43.3 10 46.6 10 50 C6.7 50 3.4 50 0 50 C0 33.5 0 17 0 0 Z " fill="#FFFFFF" transform="translate(370,320)"/>
<path d="M0 0 C3.3 0 6.6 0 10 0 C10 3.3 10 6.6 10 10 C13.3 10 16.6 10 20 10 C20 13.3 20 16.6 20 20 C16.7 20 13.4 20 10 20 C10 26.6 10 33.2 10 40 C6.7 40 3.4 40 0 40 C0 36.7 0 33.4 0 30 C-6.6 30 -13.2 30 -20 30 C-20 26.7 -20 23.4 -20 20 C-16.7 20 -13.4 20 -10 20 C-10 16.7 -10 13.4 -10 10 C-6.7 10 -3.4 10 0 10 C0 6.7 0 3.4 0 0 Z " fill="#FFFFFF" transform="translate(230,290)"/>
<path d="M0 0 C16.5 0 33 0 50 0 C50 6.6 50 13.2 50 20 C46.7 20 43.4 20 40 20 C40 16.7 40 13.4 40 10 C30.1 10 20.2 10 10 10 C10 16.6 10 23.2 10 30 C6.7 30 3.4 30 0 30 C0 20.1 0 10.2 0 0 Z " fill="#000000" transform="translate(200,40)"/>
<path d="M0 0 C6.6 0 13.2 0 20 0 C20 6.6 20 13.2 20 20 C16.7 20 13.4 20 10 20 C10 23.3 10 26.6 10 30 C6.7 30 3.4 30 0 30 C0 26.7 0 23.4 0 20 C-6.6 20 -13.2 20 -20 20 C-20 16.7 -20 13.4 -20 10 C-13.4 10 -6.8 10 0 10 C0 6.7 0 3.4 0 0 Z " fill="#FFFFFF" transform="translate(350,370)"/>
<path d="M0 0 C6.6 0 13.2 0 20 0 C20 3.3 20 6.6 20 10 C23.3 10 26.6 10 30 10 C30 13.3 30 16.6 30 20 C26.7 20 23.4 20 20 20 C20 23.3 20 26.6 20 30 C13.4 30 6.8 30 0 30 C0 20.1 0 10.2 0 0 Z " fill="#FFFFFF" transform="translate(270,300)"/>
<path d="M0 0 C6.6 0 13.2 0 20 0 C20 9.9 20 19.8 20 30 C23.3 30 26.6 30 30 30 C30 33.3 30 36.6 30 40 C23.4 40 16.8 40 10 40 C10 36.7 10 33.4 10 30 C6.7 30 3.4 30 0 30 C0 26.7 0 23.4 0 20 C3.3 20 6.6 20 10 20 C10 16.7 10 13.4 10 10 C6.7 10 3.4 10 0 10 C0 6.7 0 3.4 0 0 Z " fill="#000000" transform="translate(160,260)"/>
<path d="M0 0 C6.6 0 13.2 0 20 0 C20 3.3 20 6.6 20 10 C23.3 10 26.6 10 30 10 C30 19.9 30 29.8 30 40 C26.7 40 23.4 40 20 40 C20 36.7 20 33.4 20 30 C16.7 30 13.4 30 10 30 C10 23.4 10 16.8 10 10 C6.7 10 3.4 10 0 10 C0 6.7 0 3.4 0 0 Z " fill="#FFFFFF" transform="translate(80,240)"/>
<path d="M0 0 C6.6 0 13.2 0 20 0 C20 3.3 20 6.6 20 10 C23.3 10 26.6 10 30 10 C30 13.3 30 16.6 30 20 C26.7 20 23.4 20 20 20 C20 23.3 20 26.6 20 30 C13.4 30 6.8 30 0 30 C0 20.1 0 10.2 0 0 Z " fill="#FFFFFF" transform="translate(270,180)"/>
<path d="M0 0 C6.6 0 13.2 0 20 0 C20 6.6 20 13.2 20 20 C16.7 20 13.4 20 10 20 C10 26.6 10 33.2 10 40 C6.7 40 3.4 40 0 40 C0 26.8 0 13.6 0 0 Z " fill="#FFFFFF" transform="translate(380,150)"/>
<path d="M0 0 C3.3 0 6.6 0 10 0 C10 3.3 10 6.6 10 10 C13.3 10 16.6 10 20 10 C20 13.3 20 16.6 20 20 C23.3 20 26.6 20 30 20 C30 23.3 30 26.6 30 30 C20.1 30 10.2 30 0 30 C0 20.1 0 10.2 0 0 Z " fill="#FFFFFF" transform="translate(320,150)"/>
<path d="M0 0 C6.6 0 13.2 0 20 0 C20 6.6 20 13.2 20 20 C16.7 20 13.4 20 10 20 C10 23.3 10 26.6 10 30 C3.4 30 -3.2 30 -10 30 C-10 26.7 -10 23.4 -10 20 C-6.7 20 -3.4 20 0 20 C0 13.4 0 6.8 0 0 Z " fill="#FFFFFF" transform="translate(290,140)"/>
<path d="M0 0 C9.9 0 19.8 0 30 0 C30 6.6 30 13.2 30 20 C23.4 20 16.8 20 10 20 C10 16.7 10 13.4 10 10 C6.7 10 3.4 10 0 10 C0 6.7 0 3.4 0 0 Z " fill="#000000" transform="translate(220,360)"/>
<path d="M0 0 C3.3 0 6.6 0 10 0 C10 3.3 10 6.6 10 10 C13.3 10 16.6 10 20 10 C20 13.3 20 16.6 20 20 C23.3 20 26.6 20 30 20 C30 23.3 30 26.6 30 30 C23.4 30 16.8 30 10 30 C10 26.7 10 23.4 10 20 C6.7 20 3.4 20 0 20 C0 13.4 0 6.8 0 0 Z " fill="#FFFFFF" transform="translate(140,330)"/>
<path d="M0 0 C3.3 0 6.6 0 10 0 C10 6.6 10 13.2 10 20 C13.3 20 16.6 20 20 20 C20 26.6 20 33.2 20 40 C16.7 40 13.4 40 10 40 C10 36.7 10 33.4 10 30 C6.7 30 3.4 30 0 30 C0 20.1 0 10.2 0 0 Z " fill="#FFFFFF" transform="translate(250,310)"/>
<path d="M0 0 C3.3 0 6.6 0 10 0 C10 6.6 10 13.2 10 20 C6.7 20 3.4 20 0 20 C0 26.6 0 33.2 0 40 C-3.3 40 -6.6 40 -10 40 C-10 30.1 -10 20.2 -10 10 C-6.7 10 -3.4 10 0 10 C0 6.7 0 3.4 0 0 Z " fill="#FFFFFF" transform="translate(260,210)"/>
<path d="M0 0 C3.3 0 6.6 0 10 0 C10 3.3 10 6.6 10 10 C13.3 10 16.6 10 20 10 C20 19.9 20 29.8 20 40 C16.7 40 13.4 40 10 40 C10 33.4 10 26.8 10 20 C6.7 20 3.4 20 0 20 C0 13.4 0 6.8 0 0 Z " fill="#000000" transform="translate(390,170)"/>
<path d="M0 0 C6.6 0 13.2 0 20 0 C20 3.3 20 6.6 20 10 C16.7 10 13.4 10 10 10 C10 16.6 10 23.2 10 30 C6.7 30 3.4 30 0 30 C0 20.1 0 10.2 0 0 Z " fill="#FFFFFF" transform="translate(170,360)"/>
<path d="M0 0 C6.6 0 13.2 0 20 0 C20 9.9 20 19.8 20 30 C16.7 30 13.4 30 10 30 C10 23.4 10 16.8 10 10 C6.7 10 3.4 10 0 10 C0 6.7 0 3.4 0 0 Z " fill="#000000" transform="translate(250,300)"/>
<path d="M0 0 C3.3 0 6.6 0 10 0 C10 13.2 10 26.4 10 40 C6.7 40 3.4 40 0 40 C0 26.8 0 13.6 0 0 Z " fill="#000000" transform="translate(40,290)"/>
<path d="M0 0 C9.9 0 19.8 0 30 0 C30 3.3 30 6.6 30 10 C26.7 10 23.4 10 20 10 C20 13.3 20 16.6 20 20 C16.7 20 13.4 20 10 20 C10 16.7 10 13.4 10 10 C6.7 10 3.4 10 0 10 C0 6.7 0 3.4 0 0 Z " fill="#FFFFFF" transform="translate(220,260)"/>
<path d="M0 0 C6.6 0 13.2 0 20 0 C20 3.3 20 6.6 20 10 C16.7 10 13.4 10 10 10 C10 13.3 10 16.6 10 20 C3.4 20 -3.2 20 -10 20 C-10 16.7 -10 13.4 -10 10 C-6.7 10 -3.4 10 0 10 C0 6.7 0 3.4 0 0 Z " fill="#FFFFFF" transform="translate(320,190)"/>
<path d="M0 0 C3.3 0 6.6 0 10 0 C10 9.9 10 19.8 10 30 C6.7 30 3.4 30 0 30 C0 26.7 0 23.4 0 20 C-3.3 20 -6.6 20 -10 20 C-10 16.7 -10 13.4 -10 10 C-6.7 10 -3.4 10 0 10 C0 6.7 0 3.4 0 0 Z " fill="#000000" transform="translate(80,160)"/>
<path d="M0 0 C6.6 0 13.2 0 20 0 C20 6.6 20 13.2 20 20 C13.4 20 6.8 20 0 20 C0 13.4 0 6.8 0 0 Z " fill="#000000" transform="translate(40,160)"/>
<path d="M0 0 C3.3 0 6.6 0 10 0 C10 6.6 10 13.2 10 20 C3.4 20 -3.2 20 -10 20 C-10 16.7 -10 13.4 -10 10 C-6.7 10 -3.4 10 0 10 C0 6.7 0 3.4 0 0 Z " fill="#000000" transform="translate(230,390)"/>
<path d="M0 0 C6.6 0 13.2 0 20 0 C20 6.6 20 13.2 20 20 C16.7 20 13.4 20 10 20 C10 16.7 10 13.4 10 10 C6.7 10 3.4 10 0 10 C0 6.7 0 3.4 0 0 Z " fill="#000000" transform="translate(250,380)"/>
<path d="M0 0 C3.3 0 6.6 0 10 0 C10 3.3 10 6.6 10 10 C13.3 10 16.6 10 20 10 C20 13.3 20 16.6 20 20 C13.4 20 6.8 20 0 20 C0 13.4 0 6.8 0 0 Z " fill="#000000" transform="translate(130,360)"/>
<path d="M0 0 C6.6 0 13.2 0 20 0 C20 3.3 20 6.6 20 10 C16.7 10 13.4 10 10 10 C10 13.3 10 16.6 10 20 C6.7 20 3.4 20 0 20 C0 13.4 0 6.8 0 0 Z " fill="#000000" transform="translate(270,330)"/>
<path d="M0 0 C3.3 0 6.6 0 10 0 C10 6.6 10 13.2 10 20 C3.4 20 -3.2 20 -10 20 C-10 16.7 -10 13.4 -10 10 C-6.7 10 -3.4 10 0 10 C0 6.7 0 3.4 0 0 Z " fill="#000000" transform="translate(70,310)"/>
<path d="M0 0 C3.3 0 6.6 0 10 0 C10 6.6 10 13.2 10 20 C3.4 20 -3.2 20 -10 20 C-10 16.7 -10 13.4 -10 10 C-6.7 10 -3.4 10 0 10 C0 6.7 0 3.4 0 0 Z " fill="#FFFFFF" transform="translate(230,230)"/>
<path d="M0 0 C6.6 0 13.2 0 20 0 C20 3.3 20 6.6 20 10 C16.7 10 13.4 10 10 10 C10 13.3 10 16.6 10 20 C6.7 20 3.4 20 0 20 C0 13.4 0 6.8 0 0 Z " fill="#FFFFFF" transform="translate(220,210)"/>
<path d="M0 0 C3.3 0 6.6 0 10 0 C10 3.3 10 6.6 10 10 C13.3 10 16.6 10 20 10 C20 13.3 20 16.6 20 20 C13.4 20 6.8 20 0 20 C0 13.4 0 6.8 0 0 Z " fill="#FFFFFF" transform="translate(80,210)"/>
<path d="M0 0 C9.9 0 19.8 0 30 0 C30 3.3 30 6.6 30 10 C20.1 10 10.2 10 0 10 C0 6.7 0 3.4 0 0 Z " fill="#FFFFFF" transform="translate(160,170)"/>
<path d="M0 0 C6.6 0 13.2 0 20 0 C20 6.6 20 13.2 20 20 C16.7 20 13.4 20 10 20 C10 16.7 10 13.4 10 10 C6.7 10 3.4 10 0 10 C0 6.7 0 3.4 0 0 Z " fill="#FFFFFF" transform="translate(270,120)"/>
<path d="M0 0 C3.3 0 6.6 0 10 0 C10 6.6 10 13.2 10 20 C6.7 20 3.4 20 0 20 C0 13.4 0 6.8 0 0 Z " fill="#FFFFFF" transform="translate(310,330)"/>
<path d="M0 0 C6.6 0 13.2 0 20 0 C20 3.3 20 6.6 20 10 C13.4 10 6.8 10 0 10 C0 6.7 0 3.4 0 0 Z " fill="#FFFFFF" transform="translate(200,330)"/>
<path d="M0 0 C6.6 0 13.2 0 20 0 C20 3.3 20 6.6 20 10 C13.4 10 6.8 10 0 10 C0 6.7 0 3.4 0 0 Z " fill="#FFFFFF" transform="translate(90,290)"/>
<path d="M0 0 C6.6 0 13.2 0 20 0 C20 3.3 20 6.6 20 10 C13.4 10 6.8 10 0 10 C0 6.7 0 3.4 0 0 Z " fill="#000000" transform="translate(390,280)"/>
<path d="M0 0 C3.3 0 6.6 0 10 0 C10 6.6 10 13.2 10 20 C6.7 20 3.4 20 0 20 C0 13.4 0 6.8 0 0 Z " fill="#FFFFFF" transform="translate(80,270)"/>
<path d="M0 0 C6.6 0 13.2 0 20 0 C20 3.3 20 6.6 20 10 C13.4 10 6.8 10 0 10 C0 6.7 0 3.4 0 0 Z " fill="#FFFFFF" transform="translate(270,240)"/>
<path d="M0 0 C3.3 0 6.6 0 10 0 C10 6.6 10 13.2 10 20 C6.7 20 3.4 20 0 20 C0 13.4 0 6.8 0 0 Z " fill="#000000" transform="translate(400,220)"/>
<path d="M0 0 C6.6 0 13.2 0 20 0 C20 3.3 20 6.6 20 10 C13.4 10 6.8 10 0 10 C0 6.7 0 3.4 0 0 Z " fill="#FFFFFF" transform="translate(290,210)"/>
<path d="M0 0 C6.6 0 13.2 0 20 0 C20 3.3 20 6.6 20 10 C13.4 10 6.8 10 0 10 C0 6.7 0 3.4 0 0 Z " fill="#000000" transform="translate(220,200)"/>
<path d="M0 0 C3.3 0 6.6 0 10 0 C10 6.6 10 13.2 10 20 C6.7 20 3.4 20 0 20 C0 13.4 0 6.8 0 0 Z " fill="#FFFFFF" transform="translate(390,190)"/>
<path d="M0 0 C3.3 0 6.6 0 10 0 C10 6.6 10 13.2 10 20 C6.7 20 3.4 20 0 20 C0 13.4 0 6.8 0 0 Z " fill="#000000" transform="translate(220,170)"/>
<path d="M0 0 C3.3 0 6.6 0 10 0 C10 6.6 10 13.2 10 20 C6.7 20 3.4 20 0 20 C0 13.4 0 6.8 0 0 Z " fill="#FFFFFF" transform="translate(140,160)"/>
<path d="M0 0 C3.3 0 6.6 0 10 0 C10 6.6 10 13.2 10 20 C6.7 20 3.4 20 0 20 C0 13.4 0 6.8 0 0 Z " fill="#000000" transform="translate(280,140)"/>
<path d="M0 0 C6.6 0 13.2 0 20 0 C20 3.3 20 6.6 20 10 C13.4 10 6.8 10 0 10 C0 6.7 0 3.4 0 0 Z " fill="#FFFFFF" transform="translate(210,120)"/>
<path d="M0 0 C3.3 0 6.6 0 10 0 C10 6.6 10 13.2 10 20 C6.7 20 3.4 20 0 20 C0 13.4 0 6.8 0 0 Z " fill="#FFFFFF" transform="translate(190,100)"/>
<path d="M0 0 C3.3 0 6.6 0 10 0 C10 6.6 10 13.2 10 20 C6.7 20 3.4 20 0 20 C0 13.4 0 6.8 0 0 Z " fill="#FFFFFF" transform="translate(130,100)"/>
<path d="M0 0 C3.3 0 6.6 0 10 0 C10 6.6 10 13.2 10 20 C6.7 20 3.4 20 0 20 C0 13.4 0 6.8 0 0 Z " fill="#000000" transform="translate(320,90)"/>
<path d="M0 0 C3.3 0 6.6 0 10 0 C10 6.6 10 13.2 10 20 C6.7 20 3.4 20 0 20 C0 13.4 0 6.8 0 0 Z " fill="#FFFFFF" transform="translate(160,60)"/>
<path d="M0 0 C3.3 0 6.6 0 10 0 C10 6.6 10 13.2 10 20 C6.7 20 3.4 20 0 20 C0 13.4 0 6.8 0 0 Z " fill="#000000" transform="translate(320,50)"/>
<path d="M0 0 C6.6 0 13.2 0 20 0 C20 3.3 20 6.6 20 10 C13.4 10 6.8 10 0 10 C0 6.7 0 3.4 0 0 Z " fill="#000000" transform="translate(290,40)"/>
<path d="M0 0 C3.3 0 6.6 0 10 0 C10 3.3 10 6.6 10 10 C6.7 10 3.4 10 0 10 C0 6.7 0 3.4 0 0 Z " fill="#000000" transform="translate(370,400)"/>
<path d="M0 0 C3.3 0 6.6 0 10 0 C10 3.3 10 6.6 10 10 C6.7 10 3.4 10 0 10 C0 6.7 0 3.4 0 0 Z " fill="#000000" transform="translate(270,400)"/>
<path d="M0 0 C3.3 0 6.6 0 10 0 C10 3.3 10 6.6 10 10 C6.7 10 3.4 10 0 10 C0 6.7 0 3.4 0 0 Z " fill="#000000" transform="translate(360,390)"/>
<path d="M0 0 C3.3 0 6.6 0 10 0 C10 3.3 10 6.6 10 10 C6.7 10 3.4 10 0 10 C0 6.7 0 3.4 0 0 Z " fill="#FFFFFF" transform="translate(390,370)"/>
<path d="M0 0 C3.3 0 6.6 0 10 0 C10 3.3 10 6.6 10 10 C6.7 10 3.4 10 0 10 C0 6.7 0 3.4 0 0 Z " fill="#000000" transform="translate(260,350)"/>
<path d="M0 0 C3.3 0 6.6 0 10 0 C10 3.3 10 6.6 10 10 C6.7 10 3.4 10 0 10 C0 6.7 0 3.4 0 0 Z " fill="#000000" transform="translate(140,350)"/>
<path d="M0 0 C3.3 0 6.6 0 10 0 C10 3.3 10 6.6 10 10 C6.7 10 3.4 10 0 10 C0 6.7 0 3.4 0 0 Z " fill="#000000" transform="translate(340,340)"/>
<path d="M0 0 C3.3 0 6.6 0 10 0 C10 3.3 10 6.6 10 10 C6.7 10 3.4 10 0 10 C0 6.7 0 3.4 0 0 Z " fill="#FFFFFF" transform="translate(180,340)"/>
<path d="M0 0 C3.3 0 6.6 0 10 0 C10 3.3 10 6.6 10 10 C6.7 10 3.4 10 0 10 C0 6.7 0 3.4 0 0 Z " fill="#000000" transform="translate(290,320)"/>
<path d="M0 0 C3.3 0 6.6 0 10 0 C10 3.3 10 6.6 10 10 C6.7 10 3.4 10 0 10 C0 6.7 0 3.4 0 0 Z " fill="#FFFFFF" transform="translate(390,310)"/>
<path d="M0 0 C3.3 0 6.6 0 10 0 C10 3.3 10 6.6 10 10 C6.7 10 3.4 10 0 10 C0 6.7 0 3.4 0 0 Z " fill="#FFFFFF" transform="translate(190,310)"/>
<path d="M0 0 C3.3 0 6.6 0 10 0 C10 3.3 10 6.6 10 10 C6.7 10 3.4 10 0 10 C0 6.7 0 3.4 0 0 Z " fill="#000000" transform="translate(180,310)"/>
<path d="M0 0 C3.3 0 6.6 0 10 0 C10 3.3 10 6.6 10 10 C6.7 10 3.4 10 0 10 C0 6.7 0 3.4 0 0 Z " fill="#000000" transform="translate(330,300)"/>
<path d="M0 0 C3.3 0 6.6 0 10 0 C10 3.3 10 6.6 10 10 C6.7 10 3.4 10 0 10 C0 6.7 0 3.4 0 0 Z " fill="#000000" transform="translate(240,290)"/>
<path d="M0 0 C3.3 0 6.6 0 10 0 C10 3.3 10 6.6 10 10 C6.7 10 3.4 10 0 10 C0 6.7 0 3.4 0 0 Z " fill="#000000" transform="translate(130,290)"/>
<path d="M0 0 C3.3 0 6.6 0 10 0 C10 3.3 10 6.6 10 10 C6.7 10 3.4 10 0 10 C0 6.7 0 3.4 0 0 Z " fill="#FFFFFF" transform="translate(220,280)"/>
<path d="M0 0 C3.3 0 6.6 0 10 0 C10 3.3 10 6.6 10 10 C6.7 10 3.4 10 0 10 C0 6.7 0 3.4 0 0 Z " fill="#000000" transform="translate(190,280)"/>
<path d="M0 0 C3.3 0 6.6 0 10 0 C10 3.3 10 6.6 10 10 C6.7 10 3.4 10 0 10 C0 6.7 0 3.4 0 0 Z " fill="#FFFFFF" transform="translate(310,270)"/>
<path d="M0 0 C3.3 0 6.6 0 10 0 C10 3.3 10 6.6 10 10 C6.7 10 3.4 10 0 10 C0 6.7 0 3.4 0 0 Z " fill="#000000" transform="translate(240,270)"/>
<path d="M0 0 C3.3 0 6.6 0 10 0 C10 3.3 10 6.6 10 10 C6.7 10 3.4 10 0 10 C0 6.7 0 3.4 0 0 Z " fill="#FFFFFF" transform="translate(100,270)"/>
<path d="M0 0 C3.3 0 6.6 0 10 0 C10 3.3 10 6.6 10 10 C6.7 10 3.4 10 0 10 C0 6.7 0 3.4 0 0 Z " fill="#000000" transform="translate(400,260)"/>
<path d="M0 0 C3.3 0 6.6 0 10 0 C10 3.3 10 6.6 10 10 C6.7 10 3.4 10 0 10 C0 6.7 0 3.4 0 0 Z " fill="#000000" transform="translate(190,260)"/>
<path d="M0 0 C3.3 0 6.6 0 10 0 C10 3.3 10 6.6 10 10 C6.7 10 3.4 10 0 10 C0 6.7 0 3.4 0 0 Z " fill="#000000" transform="translate(100,260)"/>
<path d="M0 0 C3.3 0 6.6 0 10 0 C10 3.3 10 6.6 10 10 C6.7 10 3.4 10 0 10 C0 6.7 0 3.4 0 0 Z " fill="#FFFFFF" transform="translate(370,250)"/>
<path d="M0 0 C3.3 0 6.6 0 10 0 C10 3.3 10 6.6 10 10 C6.7 10 3.4 10 0 10 C0 6.7 0 3.4 0 0 Z " fill="#FFFFFF" transform="translate(60,250)"/>
<path d="M0 0 C3.3 0 6.6 0 10 0 C10 3.3 10 6.6 10 10 C6.7 10 3.4 10 0 10 C0 6.7 0 3.4 0 0 Z " fill="#000000" transform="translate(290,240)"/>
<path d="M0 0 C3.3 0 6.6 0 10 0 C10 3.3 10 6.6 10 10 C6.7 10 3.4 10 0 10 C0 6.7 0 3.4 0 0 Z " fill="#000000" transform="translate(220,230)"/>
<path d="M0 0 C3.3 0 6.6 0 10 0 C10 3.3 10 6.6 10 10 C6.7 10 3.4 10 0 10 C0 6.7 0 3.4 0 0 Z " fill="#FFFFFF" transform="translate(210,230)"/>
<path d="M0 0 C3.3 0 6.6 0 10 0 C10 3.3 10 6.6 10 10 C6.7 10 3.4 10 0 10 C0 6.7 0 3.4 0 0 Z " fill="#FFFFFF" transform="translate(130,230)"/>
<path d="M0 0 C3.3 0 6.6 0 10 0 C10 3.3 10 6.6 10 10 C6.7 10 3.4 10 0 10 C0 6.7 0 3.4 0 0 Z " fill="#FFFFFF" transform="translate(100,230)"/>
<path d="M0 0 C3.3 0 6.6 0 10 0 C10 3.3 10 6.6 10 10 C6.7 10 3.4 10 0 10 C0 6.7 0 3.4 0 0 Z " fill="#000000" transform="translate(380,220)"/>
<path d="M0 0 C3.3 0 6.6 0 10 0 C10 3.3 10 6.6 10 10 C6.7 10 3.4 10 0 10 C0 6.7 0 3.4 0 0 Z " fill="#FFFFFF" transform="translate(170,220)"/>
<path d="M0 0 C3.3 0 6.6 0 10 0 C10 3.3 10 6.6 10 10 C6.7 10 3.4 10 0 10 C0 6.7 0 3.4 0 0 Z " fill="#FFFFFF" transform="translate(140,220)"/>
<path d="M0 0 C3.3 0 6.6 0 10 0 C10 3.3 10 6.6 10 10 C6.7 10 3.4 10 0 10 C0 6.7 0 3.4 0 0 Z " fill="#FFFFFF" transform="translate(60,220)"/>
<path d="M0 0 C3.3 0 6.6 0 10 0 C10 3.3 10 6.6 10 10 C6.7 10 3.4 10 0 10 C0 6.7 0 3.4 0 0 Z " fill="#000000" transform="translate(390,210)"/>
<path d="M0 0 C3.3 0 6.6 0 10 0 C10 3.3 10 6.6 10 10 C6.7 10 3.4 10 0 10 C0 6.7 0 3.4 0 0 Z " fill="#FFFFFF" transform="translate(360,190)"/>
<path d="M0 0 C3.3 0 6.6 0 10 0 C10 3.3 10 6.6 10 10 C6.7 10 3.4 10 0 10 C0 6.7 0 3.4 0 0 Z " fill="#FFFFFF" transform="translate(290,190)"/>
<path d="M0 0 C3.3 0 6.6 0 10 0 C10 3.3 10 6.6 10 10 C6.7 10 3.4 10 0 10 C0 6.7 0 3.4 0 0 Z " fill="#000000" transform="translate(280,190)"/>
<path d="M0 0 C3.3 0 6.6 0 10 0 C10 3.3 10 6.6 10 10 C6.7 10 3.4 10 0 10 C0 6.7 0 3.4 0 0 Z " fill="#000000" transform="translate(50,190)"/>
<path d="M0 0 C3.3 0 6.6 0 10 0 C10 3.3 10 6.6 10 10 C6.7 10 3.4 10 0 10 C0 6.7 0 3.4 0 0 Z " fill="#000000" transform="translate(100,180)"/>
<path d="M0 0 C3.3 0 6.6 0 10 0 C10 3.3 10 6.6 10 10 C6.7 10 3.4 10 0 10 C0 6.7 0 3.4 0 0 Z " fill="#000000" transform="translate(60,180)"/>
<path d="M0 0 C3.3 0 6.6 0 10 0 C10 3.3 10 6.6 10 10 C6.7 10 3.4 10 0 10 C0 6.7 0 3.4 0 0 Z " fill="#000000" transform="translate(340,160)"/>
<path d="M0 0 C3.3 0 6.6 0 10 0 C10 3.3 10 6.6 10 10 C6.7 10 3.4 10 0 10 C0 6.7 0 3.4 0 0 Z " fill="#000000" transform="translate(100,160)"/>
<path d="M0 0 C3.3 0 6.6 0 10 0 C10 3.3 10 6.6 10 10 C6.7 10 3.4 10 0 10 C0 6.7 0 3.4 0 0 Z " fill="#000000" transform="translate(90,150)"/>
<path d="M0 0 C3.3 0 6.6 0 10 0 C10 3.3 10 6.6 10 10 C6.7 10 3.4 10 0 10 C0 6.7 0 3.4 0 0 Z " fill="#FFFFFF" transform="translate(80,150)"/>
<path d="M0 0 C3.3 0 6.6 0 10 0 C10 3.3 10 6.6 10 10 C6.7 10 3.4 10 0 10 C0 6.7 0 3.4 0 0 Z " fill="#000000" transform="translate(250,140)"/>
<path d="M0 0 C3.3 0 6.6 0 10 0 C10 3.3 10 6.6 10 10 C6.7 10 3.4 10 0 10 C0 6.7 0 3.4 0 0 Z " fill="#FFFFFF" transform="translate(140,140)"/>
<path d="M0 0 C3.3 0 6.6 0 10 0 C10 3.3 10 6.6 10 10 C6.7 10 3.4 10 0 10 C0 6.7 0 3.4 0 0 Z " fill="#000000" transform="translate(100,140)"/>
<path d="M0 0 C3.3 0 6.6 0 10 0 C10 3.3 10 6.6 10 10 C6.7 10 3.4 10 0 10 C0 6.7 0 3.4 0 0 Z " fill="#000000" transform="translate(40,140)"/>
<path d="M0 0 C3.3 0 6.6 0 10 0 C10 3.3 10 6.6 10 10 C6.7 10 3.4 10 0 10 C0 6.7 0 3.4 0 0 Z " fill="#FFFFFF" transform="translate(340,130)"/>
<path d="M0 0 C3.3 0 6.6 0 10 0 C10 3.3 10 6.6 10 10 C6.7 10 3.4 10 0 10 C0 6.7 0 3.4 0 0 Z " fill="#000000" transform="translate(270,130)"/>
<path d="M0 0 C3.3 0 6.6 0 10 0 C10 3.3 10 6.6 10 10 C6.7 10 3.4 10 0 10 C0 6.7 0 3.4 0 0 Z " fill="#FFFFFF" transform="translate(190,130)"/>
<path d="M0 0 C3.3 0 6.6 0 10 0 C10 3.3 10 6.6 10 10 C6.7 10 3.4 10 0 10 C0 6.7 0 3.4 0 0 Z " fill="#FFFFFF" transform="translate(130,130)"/>
<path d="M0 0 C3.3 0 6.6 0 10 0 C10 3.3 10 6.6 10 10 C6.7 10 3.4 10 0 10 C0 6.7 0 3.4 0 0 Z " fill="#000000" transform="translate(60,130)"/>
<path d="M0 0 C3.3 0 6.6 0 10 0 C10 3.3 10 6.6 10 10 C6.7 10 3.4 10 0 10 C0 6.7 0 3.4 0 0 Z " fill="#000000" transform="translate(230,120)"/>
<path d="M0 0 C3.3 0 6.6 0 10 0 C10 3.3 10 6.6 10 10 C6.7 10 3.4 10 0 10 C0 6.7 0 3.4 0 0 Z " fill="#FFFFFF" transform="translate(140,120)"/>
<path d="M0 0 C3.3 0 6.6 0 10 0 C10 3.3 10 6.6 10 10 C6.7 10 3.4 10 0 10 C0 6.7 0 3.4 0 0 Z " fill="#000000" transform="translate(100,120)"/>
<path d="M0 0 C3.3 0 6.6 0 10 0 C10 3.3 10 6.6 10 10 C6.7 10 3.4 10 0 10 C0 6.7 0 3.4 0 0 Z " fill="#000000" transform="translate(40,120)"/>
<path d="M0 0 C3.3 0 6.6 0 10 0 C10 3.3 10 6.6 10 10 C6.7 10 3.4 10 0 10 C0 6.7 0 3.4 0 0 Z " fill="#000000" transform="translate(240,100)"/>
<path d="M0 0 C3.3 0 6.6 0 10 0 C10 3.3 10 6.6 10 10 C6.7 10 3.4 10 0 10 C0 6.7 0 3.4 0 0 Z " fill="#FFFFFF" transform="translate(210,100)"/>
<path d="M0 0 C3.3 0 6.6 0 10 0 C10 3.3 10 6.6 10 10 C6.7 10 3.4 10 0 10 C0 6.7 0 3.4 0 0 Z " fill="#FFFFFF" transform="translate(170,100)"/>
<path d="M0 0 C3.3 0 6.6 0 10 0 C10 3.3 10 6.6 10 10 C6.7 10 3.4 10 0 10 C0 6.7 0 3.4 0 0 Z " fill="#000000" transform="translate(160,100)"/>
<path d="M0 0 C3.3 0 6.6 0 10 0 C10 3.3 10 6.6 10 10 C6.7 10 3.4 10 0 10 C0 6.7 0 3.4 0 0 Z " fill="#FFFFFF" transform="translate(180,90)"/>
<path d="M0 0 C3.3 0 6.6 0 10 0 C10 3.3 10 6.6 10 10 C6.7 10 3.4 10 0 10 C0 6.7 0 3.4 0 0 Z " fill="#FFFFFF" transform="translate(160,90)"/>
<path d="M0 0 C3.3 0 6.6 0 10 0 C10 3.3 10 6.6 10 10 C6.7 10 3.4 10 0 10 C0 6.7 0 3.4 0 0 Z " fill="#000000" transform="translate(270,60)"/>
<path d="M0 0 C3.3 0 6.6 0 10 0 C10 3.3 10 6.6 10 10 C6.7 10 3.4 10 0 10 C0 6.7 0 3.4 0 0 Z " fill="#FFFFFF" transform="translate(240,60)"/>
<path d="M0 0 C3.3 0 6.6 0 10 0 C10 3.3 10 6.6 10 10 C6.7 10 3.4 10 0 10 C0 6.7 0 3.4 0 0 Z " fill="#000000" transform="translate(230,60)"/>
<path d="M0 0 C3.3 0 6.6 0 10 0 C10 3.3 10 6.6 10 10 C6.7 10 3.4 10 0 10 C0 6.7 0 3.4 0 0 Z " fill="#000000" transform="translate(260,40)"/>
<path d="M0 0 C3.3 0 6.6 0 10 0 C10 3.3 10 6.6 10 10 C6.7 10 3.4 10 0 10 C0 6.7 0 3.4 0 0 Z " fill="#000000" transform="translate(130,40)"/>
</svg>
