<?xml version="1.0" encoding="UTF-8"?>
<svg xmlns="http://www.w3.org/2000/svg" xmlns:xlink="http://www.w3.org/1999/xlink" version="1.1" width="512" height="512" x="0" y="0" viewBox="0 0 682.667 682.667" style="enable-background:new 0 0 512 512" xml:space="preserve" class="">
  <g>
    <defs>
      <clipPath id="a">
        <path d="M0 512h512V0H0Z" fill="#3e2f6c" opacity="1" data-original="#000000"/>
      </clipPath>
    </defs>
    <g clip-path="url(#a)" transform="matrix(1.33333 0 0 -1.33333 0 682.667)">
      <path d="M0 0c13.524 27.188 21.691 57.513 23.99 88.4C29.725 165.436-9.155 250.492-87.371 274c-28.549 8.58-59.415 7.172-85.824-4.178-10.642-4.574-22.655-4.811-33.35-.365-21.614 8.986-61.698 31.521-84.754 51.201-4.845 4.136-12.102 3.615-16.264-1.207-6.796-7.873-16.561-19.184-23.249-26.927-4.273-4.946-3.592-12.449 1.507-16.538 15.35-12.309 45.225-34.887 48.183-37.226 35.365-27.955 54.236-72.198 52.265-116.988-1.607-36.489-20.656-95.504-57.37-111.304-22.129-9.524-44.567-.257-67.035 3.097-16.174 2.415-32.634-7.626-40.449-21.478-21.408-37.948 4.126-114.677 28.082-159.594a11.528 11.528 0 0 1 10.18-6.095h42.15c8.373 0 13.942 8.622 10.534 16.27-8.795 19.741-17.594 50.414-20.919 77.267-.987 7.968 5.951 14.161 12.82 10.001 52.427-31.753 116.459-44.165 176.901-33.702a181.12 181.12 0 0 1 14.306 3.073" style="stroke-width:15;stroke-linecap:round;stroke-linejoin:round;stroke-miterlimit:10;stroke-dasharray:none;stroke-opacity:1" transform="translate(427.277 181.078)" fill="none" stroke="#3e2f6c" stroke-width="15" stroke-linecap="round" stroke-linejoin="round" stroke-miterlimit="10" stroke-dasharray="none" stroke-opacity="" data-original="#000000" opacity="1"/>
      <path d="M0 0c12.695 21.759 18.67 47.218 14.257 71.887-4.918 27.494-30.909 50.571-60.081 40.167-11.458-4.086-20.59-12.58-24.755-24.109-4.704-13.019-2.54-23.858-13.174-34.611-7.821-7.909-18.371-12.313-28.719-15.843-5.071-1.729-10.874-3.306-16.276-4.742" style="stroke-width:15;stroke-linecap:round;stroke-linejoin:round;stroke-miterlimit:10;stroke-dasharray:none;stroke-opacity:1" transform="translate(379.654 184.629)" fill="none" stroke="#3e2f6c" stroke-width="15" stroke-linecap="round" stroke-linejoin="round" stroke-miterlimit="10" stroke-dasharray="none" stroke-opacity="" data-original="#000000" opacity="1"/>
      <path d="M0 0c-4.947-2.588-9.557-5.734-13.63-9.718-14.836-14.508-22.064-36.262-12.171-55.605 4.733-9.254 13.229-16.242 22.724-20.472 29.431-13.111 66.497-7.228 98.045 7.1" style="stroke-width:15;stroke-linecap:round;stroke-linejoin:round;stroke-miterlimit:10;stroke-dasharray:none;stroke-opacity:1" transform="translate(218.012 206.15)" fill="none" stroke="#3e2f6c" stroke-width="15" stroke-linecap="round" stroke-linejoin="round" stroke-miterlimit="10" stroke-dasharray="none" stroke-opacity="" data-original="#000000" opacity="1"/>
      <path d="M0 0c-14.726-29.178-44.967-49.188-79.882-49.188-49.388 0-89.424 40.037-89.424 89.424 0 49.388 40.036 89.424 89.424 89.424 49.388 0 89.424-40.036 89.424-89.424 0-2.206-.08-4.393-.237-6.559" style="stroke-width:15;stroke-linecap:round;stroke-linejoin:round;stroke-miterlimit:10;stroke-dasharray:none;stroke-opacity:1" transform="translate(476.925 56.664)" fill="none" stroke="#3e2f6c" stroke-width="15" stroke-linecap="round" stroke-linejoin="round" stroke-miterlimit="10" stroke-dasharray="none" stroke-opacity="" data-original="#000000" opacity="1"/>
      <path d="M0 0h-20.452a5.359 5.359 0 0 0-5.359 5.359v20.453a5.358 5.358 0 0 1-5.359 5.358h-29.374a5.358 5.358 0 0 1-5.358-5.358V5.359A5.36 5.36 0 0 0-71.262 0h-20.452a5.358 5.358 0 0 1-5.358-5.358v-29.374a5.36 5.36 0 0 1 5.358-5.36h20.452c2.96 0 5.36-2.398 5.36-5.358v-20.452c0-2.96 2.398-5.36 5.358-5.36h29.374a5.36 5.36 0 0 1 5.359 5.36v20.452a5.358 5.358 0 0 0 5.359 5.358H0c2.96 0 5.358 2.4 5.358 5.36v29.374A5.358 5.358 0 0 1 0 0Z" style="stroke-width:15;stroke-linecap:round;stroke-linejoin:round;stroke-miterlimit:10;stroke-dasharray:none;stroke-opacity:1" transform="translate(442.901 116.945)" fill="none" stroke="#3e2f6c" stroke-width="15" stroke-linecap="round" stroke-linejoin="round" stroke-miterlimit="10" stroke-dasharray="none" stroke-opacity="" data-original="#000000" opacity="1"/>
    </g>
  </g>
</svg>
