<?xml version="1.0" encoding="UTF-8"?>
<svg xmlns="http://www.w3.org/2000/svg" xmlns:xlink="http://www.w3.org/1999/xlink" version="1.1" width="512" height="512" x="0" y="0" viewBox="0 0 64 64" style="enable-background:new 0 0 512 512" xml:space="preserve" class="">
  <g>
    <path d="M32 4c-1.79 0-3.076 1.136-4.172 2.098-1.096.962-2.056 1.774-2.978 1.914-.913.138-2.697-.792-4.413-1.701-.857-.455-1.7-.887-2.626-1.024-.927-.137-2.072.24-2.66 1.184-.854 1.367-.48 2.991.3 4.334.78 1.342 1.985 2.602 3.246 3.734 2.522 2.265 5.317 3.998 5.317 3.998a1 1 0 0 0 .527.152h14.916a1 1 0 0 0 .53-.152s2.791-1.733 5.314-3.998c1.26-1.132 2.466-2.392 3.246-3.734.78-1.343 1.154-2.967.3-4.334-.588-.945-1.733-1.321-2.66-1.184-.926.137-1.769.569-2.626 1.024-1.716.909-3.5 1.839-4.413 1.7-.922-.139-1.882-.951-2.978-1.913C35.074 5.136 33.79 4 32 4zm-7.447 16.69a1 1 0 0 0-.366.068c-4.3 1.683-7.796 5.71-10.267 10.418C11.449 35.884 10 41.304 10 46c0 6.07 2.646 9.823 6.723 11.754C20.8 59.685 26.16 60 32 60s11.2-.315 15.277-2.246S54 52.069 54 46c0-4.696-1.45-10.116-3.922-14.824-2.471-4.708-5.966-8.735-10.267-10.418a1 1 0 0 0-.364-.069zm3.758 12.654h7.378c.28 0 .521.1.721.3.2.187.299.428.299.721 0 .28-.099.513-.299.7-.2.186-.44.279-.72.279h-1.745c.29.219.541.476.744.781.086.128.159.263.221.4h.78c.28 0 .52.1.72.3.2.186.299.42.299.7s-.099.52-.299.72c-.2.186-.44.28-.72.28h-.626a3.293 3.293 0 0 1-.214.58 4.29 4.29 0 0 1-.8 1.16c-.29.304-.62.546-.972.747.193.122.38.26.553.433.293.28.532.6.719.96s.293.752.32 1.179l.1 1.041c.026.267.074.487.14.66.08.173.2.307.36.4.16.094.28.213.36.36.08.133.12.28.12.44a.78.78 0 0 1-.28.62c-.173.16-.407.239-.7.239a1.81 1.81 0 0 1-.7-.158 2.082 2.082 0 0 1-.68-.58c-.2-.28-.366-.64-.5-1.08-.133-.454-.2-1.016-.2-1.682 0-.334-.054-.62-.16-.86a1.491 1.491 0 0 0-.44-.58 1.64 1.64 0 0 0-.66-.34 2.711 2.711 0 0 0-.82-.119h-2.26c-.28 0-.52-.08-.72-.24-.186-.173-.28-.408-.28-.701 0-.28.094-.492.28-.639.2-.16.44-.24.72-.24h2.8c.307-.013.6-.127.88-.34a2.35 2.35 0 0 0 .7-.92 2.63 2.63 0 0 0 .131-.34h-4.55c-.294 0-.54-.094-.74-.28a1.045 1.045 0 0 1-.282-.741c0-.293.095-.526.281-.7.2-.186.447-.279.74-.279h4.49a1.966 1.966 0 0 0-.37-.56c-.374-.413-.82-.621-1.34-.621h-2.78c-.293 0-.54-.093-.74-.28a1.045 1.045 0 0 1-.28-.74c0-.28.094-.512.28-.699.2-.187.447-.281.74-.281z" fill="#ff7b00" opacity="1" data-original="#000000" class=""/>
  </g>
</svg>
