<?xml version="1.0" encoding="UTF-8"?>
<svg xmlns="http://www.w3.org/2000/svg" xmlns:xlink="http://www.w3.org/1999/xlink" version="1.1" width="512" height="512" x="0" y="0" viewBox="0 0 450 450" style="enable-background:new 0 0 512 512" xml:space="preserve" class="">
  <g>
    <path d="M71.6 375.7c-2.5 0-4.9-.3-7-.9-22.1-5.4-39.7-34.9-44.1-60.3-16.8-88.4-10-152.6 20.4-190.9 21-26.5 53.4-40.8 96.2-42.5 78.1-3.1 104.2-1.6 105.2-1.6 2.3.1 4.2 1.8 4.6 4l23.6 121.3c0 .2.1.3.1.5 3.7 40.7-6.9 70.5-32.4 91.4-2.1 1.7-5.3 1.4-7-.7s-1.4-5.3.7-7c22.7-18.5 32.1-45.5 28.8-82.5L237.9 89.3c-9.8-.3-39.2-.7-100.4 1.7-39.8 1.6-69.6 14.6-88.8 38.8-28.5 35.9-34.7 97.4-18.3 182.9v.1c4.2 24.5 20.9 48.5 36.6 52.4 8.5 2.1 16.5-1.7 23.8-11.2 13.1-17.3 39.4-24.9 67.3-33 10.8-3.1 21.9-6.4 32.6-10.2 2.6-.9 5.5.4 6.4 3s-.4 5.5-3 6.4c-11 4-22.3 7.3-33.2 10.4-26.2 7.6-51 14.8-62.1 29.4-9.4 12.2-19.2 15.7-27.2 15.7zM303.3 244c-2.9 0-5.4-.5-7.8-1.6-7.3-3.4-9.6-11.3-9.8-15.4v-.4c3.9-97.6-16.5-121.2-16.7-121.4l-.9-1.2c-4-7.6-2.6-13.4-.7-16.9 5-9.3 19.8-15.2 45.1-18.1 26.7-3 55.7-1.5 58.9-1.3 30.2-1 50.7 5.2 60.9 18.5 10.5 13.7 5.7 29.5 5.5 30.1-.4 1.2-1.1 2.2-2.2 2.8-32.7 19.6-93.5 105.2-94.1 106-.3.4-.6.8-1 1.1-15.6 11.9-27.8 17.8-37.2 17.8zm-7.6-17.4c.1.8.7 5.2 4.1 6.7 2.8 1.3 11.7 2.4 34-14.6 6-8.4 61.3-85.4 94.9-107.1.7-3.5 1.4-12-4.4-19.5-8.1-10.4-26.3-15.5-52.7-14.5h-.5c-.3 0-30.6-1.7-57.4 1.3-29.3 3.3-35.9 10.1-37.4 12.8-.7 1.3-1.3 3.3.5 7.1 3.8 4.7 22.6 32.9 18.9 127.8z" fill="#0f451f" opacity="1" data-original="#000000" class=""/>
    <path d="M59.6 276.4c-2.4 0-4.4-1.7-4.9-4.1-10.6-55.5-6.3-96 13-120.2 13.4-16.9 34-26.1 61.2-27.2 2.8-.1 5.1 2 5.2 4.8s-2 5.1-4.8 5.2c-24.1 1-42.2 8.8-53.8 23.4-17.4 21.9-21.1 59.6-11 112.1.5 2.7-1.3 5.3-4 5.9-.2 0-.5.1-.9.1zM194.6 89.3c-2 0-3.9-1.2-4.7-3.2-3.8-9.7-1.8-19.1 5.5-26.5 11.7-11.8 35.2-16.2 52.4-9.7 12.6 4.7 13.9 4 18 1.8 3.5-1.9 8.3-4.4 18.4-6.1 7.9-1.3 14.9.1 20.7 4.3 10.8 7.8 13 22.5 13.1 23.1.4 2.7-1.5 5.3-4.2 5.7s-5.3-1.5-5.7-4.2c0-.2-1.8-11.2-9.2-16.5-3.6-2.6-7.8-3.4-13.1-2.5-8.5 1.4-12.3 3.4-15.4 5.1-6.8 3.6-10.9 4.4-26.2-1.3-13.6-5.1-32.8-1.7-41.8 7.4-4.5 4.6-5.6 9.9-3.3 15.8 1 2.6-.3 5.5-2.8 6.5-.5.2-1.1.3-1.7.3zM299.6 313.8c-.5 0-1.1-.1-1.7-.3-2.5-.9-3.2-3-3.5-4-.1-.2-.2-.5-.3-.9-2.5-6.1-12.3-28.1-35.7-52.1-1.9-2-1.9-5.1.1-7.1s5.1-1.9 7.1.1c21.6 22.1 32.3 42.8 36.5 52.1l8.8-5.1c-15.1-22.3-21.6-59.2-21.9-60.9-.5-2.7 1.4-5.3 4.1-5.8s5.3 1.4 5.8 4.1c.1.4 7.3 41.7 23.2 60.9.9 1.1 1.3 2.6 1.1 4.1-.3 1.4-1.1 2.7-2.4 3.4l-16.3 9.4c-.5.3-.9.5-1.1.7-.9.6-2.2 1.4-3.8 1.4zM241.9 406.3c-10 0-17.7-3.8-19.5-10.5-2.5-9.2 7.4-19.3 23-23.5 15.6-4.2 29.2-.4 31.6 8.9 2.5 9.2-7.4 19.3-23 23.5-4.2 1-8.3 1.6-12.1 1.6zm6.1-24.4c-10.8 2.9-16.5 9-15.9 11.2s8.6 4.7 19.4 1.8 16.5-9 15.9-11.2c-.7-2.2-8.7-4.7-19.4-1.8z" fill="#0f451f" opacity="1" data-original="#000000" class=""/>
    <path d="M272.2 387.4c-1.6 0-3.1-.7-4.1-2.1-26-37.4-35.9-76.3-39.7-102.3-4.1-28.3-2-47.5-1.9-48.3.3-2.7 2.8-4.7 5.5-4.4s4.7 2.8 4.4 5.5c-.1.7-7.7 75.5 39.8 143.8 1.6 2.3 1 5.4-1.2 7-.8.5-1.8.8-2.8.8zM227.3 399.4c-1.6 0-3.1-.7-4.1-2.1-26-37.4-36-76.6-39.9-103-4.1-28.6-2.2-48.2-2.1-49 .3-2.7 2.8-4.7 5.5-4.4s4.7 2.7 4.4 5.5c-.1.8-7.4 76.9 40.2 145.3 1.6 2.3 1 5.4-1.2 7-.9.4-1.8.7-2.8.7z" fill="#0f451f" opacity="1" data-original="#000000" class=""/>
    <path d="M158.8 252.1h-5.2c-2.8 0-5-2.3-4.9-5.1 0-2.8 2.3-5 5.1-4.9 75.9 1.2 97.6-25.1 97.8-25.4 1.7-2.2 4.9-2.5 7-.8 2.2 1.7 2.5 4.9.8 7-.9 1.2-24 29.2-100.6 29.2z" fill="#0f451f" opacity="1" data-original="#000000" class=""/>
  </g>
</svg>
