<?xml version="1.0" encoding="UTF-8"?>
<svg xmlns="http://www.w3.org/2000/svg" xmlns:xlink="http://www.w3.org/1999/xlink" version="1.1" width="512" height="512" x="0" y="0" viewBox="0 0 1707 1707" style="enable-background:new 0 0 512 512" xml:space="preserve" fill-rule="evenodd" class="">
  <g>
    <path d="M1045 1583c-79 0-106-121-106-147v-252c0-199-192-205-192 0v259c-10 64-57 185-157 124-80-47-178-198-199-345-29-210 24-162-85-375C93 427 406 150 843 362c437-212 750 65 536 485-108 212-55 165-84 375-21 151-148 361-250 361zm-66-148c8 55 35 136 97 98 70-42 161-183 179-317 29-206-24-166 89-387 199-391-88-629-492-427-6 2-12 2-18 0-404-202-691 36-492 427 113 220 60 181 89 387 22 158 161 354 225 324 23-11 43-51 51-102v-254c0-259 272-253 272 0z" fill="#0d2324" opacity="1" data-original="#000000"/>
    <path d="M412 676c-11 0-20-9-20-20 0-117 96-212 213-212 26 0 26 40 0 40-95 0-173 77-173 172 0 11-9 20-20 20zM1274 676c-11 0-20-9-20-20 0-95-78-172-173-172-26 0-26-40 0-40 117 0 213 95 213 212 0 11-9 20-20 20zM1047 945c-18 0-24-24-34-45-37-79-41-68-128-110-15-7-15-29 0-36 111-54 90-33 144-144 7-15 29-15 36 0 53 111 32 90 144 144 15 7 15 29 0 36-115 55-89 33-144 144-4 7-10 11-18 11zM941 772c69 32 74 37 106 106 32-69 37-74 106-106-69-33-74-37-106-106-33 69-38 74-106 106zM1566 1181c-18 0-23-20-31-39-29-60-30-51-99-84-15-7-15-29 0-36 85-41 71-27 111-112 8-15 29-15 37 0 40 85 26 71 111 112 15 7 15 29 0 36-87 41-70 26-111 111-4 7-11 12-18 12zm-75-141c45 21 53 29 75 74 21-45 29-53 74-74-45-22-53-29-74-74-22 45-30 52-75 74zM141 405c-17 0-22-20-31-38-28-60-29-52-99-85-15-7-15-29 0-36 87-41 71-26 112-111 7-16 29-15 36 0 41 85 26 70 112 111 15 7 15 29 0 36-87 42-71 27-112 112-3 7-10 11-18 11zM67 264c45 22 52 29 74 75 22-46 29-53 74-75-45-21-52-29-74-74-22 45-29 53-74 74zM609 841c-11 0-20-9-20-20v-75c0-27 40-27 40 0v75c0 11-9 20-20 20zM609 1038c-11 0-20-9-20-20v-76c0-26 40-26 40 0v76c0 11-9 20-20 20zM745 902h-76c-26 0-26-40 0-40h76c26 0 26 40 0 40zM548 902h-76c-26 0-26-40 0-40h76c26 0 26 40 0 40z" fill="#0d2324" opacity="1" data-original="#000000"/>
  </g>
</svg>
