<?xml version="1.0" encoding="UTF-8"?>
<svg xmlns="http://www.w3.org/2000/svg" xmlns:xlink="http://www.w3.org/1999/xlink" version="1.1" width="512" height="512" x="0" y="0" viewBox="0 0 512 512" style="enable-background:new 0 0 512 512" xml:space="preserve" class="">
  <g>
    <path d="M76.215 54.717v70.613H5.796A5.796 5.796 0 0 1 0 119.534V54.042c0-10.529 4.264-20.051 11.157-26.945C18.001 20.241 27.45 15.989 37.88 15.93c21.085-.121 38.335 17.702 38.335 38.787z" style="" fill="#efb800" data-original="#a6d3e8" class="" opacity="1"/>
    <path d="M390.075 54.042v353.984c0 6.668-5.405 12.073-12.073 12.073H88.287c-6.667 0-12.073-5.405-12.073-12.073V54.042c0-21.046-17.067-38.113-38.113-38.113h313.86c21.05 0 38.114 17.064 38.114 38.113z" style="" fill="#ffde00" data-original="#d0f0fe" class="" opacity="1"/>
    <path d="m262.38 196.806-12.903-16.77 27.348-35.539a7.914 7.914 0 0 0-1.445-11.096 7.915 7.915 0 0 0-11.097 1.445l-24.791 32.216-23.974-31.155c19.63-3.019 34.711-20.024 34.711-40.486 0-22.587-18.376-40.963-40.962-40.963h-33.664a7.912 7.912 0 0 0-7.912 7.912v132.361a7.912 7.912 0 0 0 15.824 0v-58.349h12.399l33.59 43.657-27.345 35.536a7.914 7.914 0 0 0 12.542 9.65l24.791-32.216 16.041 20.845 8.744 11.366a7.917 7.917 0 0 0 6.282 3.092 7.912 7.912 0 0 0 6.265-12.738l-14.444-18.768zM183.515 70.285h25.751c13.861 0 25.137 11.277 25.137 25.138s-11.276 25.137-25.137 25.137h-25.751V70.285zM318.827 284.701H127.328a7.912 7.912 0 0 1 0-15.824h191.499c4.37 0 7.912 3.542 7.912 7.912s-3.541 7.912-7.912 7.912zM318.827 337.882H127.328a7.912 7.912 0 0 1 0-15.825h191.499a7.912 7.912 0 0 1 7.912 7.913 7.91 7.91 0 0 1-7.912 7.912zM458.681 299.347a7.603 7.603 0 0 1-6.578-11.407l41.905-72.581-16.884-9.748a7.603 7.603 0 0 1-2.783-10.387 7.601 7.601 0 0 1 10.387-2.783l23.469 13.55a7.603 7.603 0 0 1 2.783 10.387l-45.707 79.167a7.602 7.602 0 0 1-6.592 3.802z" style="" fill="#2b2f52" data-original="#2b2f52"/>
    <path d="m380.962 366.433-66.494-38.391a2.867 2.867 0 0 1-1.049-3.916l96.047-166.359c11.393-19.733 36.625-26.494 56.359-15.101 19.733 11.393 26.494 36.625 15.101 56.359l-96.047 166.359a2.868 2.868 0 0 1-3.917 1.049z" style="" fill="#747693" data-original="#747693"/>
    <path d="M465.824 142.666c8.895 5.135 11.942 16.509 6.807 25.404L365.253 354.053a2.867 2.867 0 0 1-3.916 1.049l-13.622-7.865 33.247 19.195a2.866 2.866 0 0 0 3.916-1.049l96.047-166.359c11.393-19.732 4.632-44.965-15.101-56.358z" style="" fill="#545777" data-original="#545777"/>
    <path d="m373.036 364.611-63.603 98.314a2.264 2.264 0 0 1-.583.612l-44.217 31.745c-1.589 1.141-3.781-.125-3.588-2.072l5.383-54.166a2.28 2.28 0 0 1 .238-.811l54.431-106.367 51.167 29.541a2.273 2.273 0 0 1 .772 3.204z" style="" fill="#e8c778" data-original="#e8c778"/>
    <path d="m267.713 493.071 41.487-29.785 65.135-100.683-21.407-12.36-60.91 103.123-26.823 38.226" style="" fill="#d99a4a" data-original="#d99a4a" class=""/>
    <path d="m309.2 463.286-45.15 32.415c-1.362.978-3.241-.107-3.075-1.775l5.497-55.309 42.728 24.669z" style="" fill="#747693" data-original="#747693"/>
    <path d="m292.059 453.389 17.141 9.896-45.15 32.415c-.777.558-1.722.444-2.36-.065l30.369-42.246z" style="" fill="#545777" data-original="#545777"/>
  </g>
</svg>
