<?xml version="1.0" encoding="UTF-8"?>
<svg xmlns="http://www.w3.org/2000/svg" xmlns:xlink="http://www.w3.org/1999/xlink" version="1.1" width="512" height="512" x="0" y="0" viewBox="0 0 64 64" style="enable-background:new 0 0 512 512" xml:space="preserve" class="">
  <g>
    <path d="M59 40c-12.513-.254-13.393.501-19.366-.653C38.671 39.161 37.839 39 37 39c-1.731 0-3.351 1.808-2.834 3.832C34.515 44.211 36 44.958 36 48c0 4.429-2.918 6-5.416 6C29.04 54 24 53.351 24 45c0-.614.076-1.152.149-1.674.2-1.422.427-3.033-1.843-4.063-1.007-.457-1.949-.258-3.79.083C12.735 40.419 11.16 39.813 5 40c-1.322 0-1.324 2 0 2 5.999-.193 7.827.435 13.881-.687.939-.174 1.681-.312 2.332-.312.024 0 .118.016.267.083.908.412.879.618.689 1.963C22.09 43.609 22 44.246 22 45c0 10.691 7.706 11 8.584 11C34.155 56 38 53.497 38 48c0-3.546-1.717-4.96-1.896-5.662C35.83 41.269 37.1 40.92 37 41c.647 0 1.356.137 2.254.311 6.149 1.188 8.197.437 19.746.689 1.324 0 1.323-2 0-2z" fill="#ad0241" opacity="1" data-original="#000000" class=""/>
    <path d="M30.584 52C32.723 52 34 50.505 34 48c0-1.502-.509-2.258-.958-2.925C32.53 44.314 32 43.528 32 41c0-13.635 9.774-31.336 9.873-31.513.623-1.116-1.012-2.105-1.711-1.033C39.584 9.342 26 30.371 26 45c0 6.318 3.206 7 4.584 7zm1.21-22.984C30.728 32.991 30 37.123 30 41c0 3.138.767 4.277 1.383 5.192.385.572.617.916.617 1.808 0 2-.921 2-1.416 2C28.448 50 28 47.281 28 45c0-4.857 1.642-10.576 3.794-15.984zM12 31c3.364 0 5 1.636 5 5 0 1.322 2 1.324 2 0 0-3.364 1.636-5 5-5 1.322 0 1.324-2 0-2-3.364 0-5-1.636-5-5 0-1.322-2-1.324-2 0 0 3.364-1.636 5-5 5-1.322 0-1.324 2 0 2zm6-2.899A5.497 5.497 0 0 0 19.899 30 5.497 5.497 0 0 0 18 31.899 5.497 5.497 0 0 0 16.101 30 5.497 5.497 0 0 0 18 28.101zM22 16c2.691 0 4 1.309 4 4 0 1.322 2 1.324 2 0 0-2.691 1.309-4 4-4 1.322 0 1.324-2 0-2-2.691 0-4-1.309-4-4 0-1.322-2-1.324-2 0 0 2.691-1.309 4-4 4-1.322 0-1.324 2 0 2zm5-2.261c.339.5.761.922 1.261 1.261-.5.339-.922.761-1.261 1.261A4.699 4.699 0 0 0 25.739 15c.5-.339.922-.761 1.261-1.261z" fill="#ad0241" opacity="1" data-original="#000000" class=""/>
    <path d="M38 30c-1.324 0-1.323 2 0 2 2.691 0 4 1.309 4 4 0 1.323 2 1.324 2 0 0-2.691 1.309-4 4-4 1.324 0 1.323-2 0-2-2.691 0-4-1.309-4-4 0-1.323-2-1.324-2 0 0 2.691-1.309 4-4 4zm5-.261c.339.5.761.922 1.261 1.261-.5.339-.922.761-1.261 1.261A4.699 4.699 0 0 0 41.739 31c.5-.339.922-.761 1.261-1.261z" fill="#ad0241" opacity="1" data-original="#000000" class=""/>
  </g>
</svg>
