<?xml version="1.0" encoding="UTF-8"?>
<svg xmlns="http://www.w3.org/2000/svg" xmlns:xlink="http://www.w3.org/1999/xlink" version="1.1" width="512" height="512" x="0" y="0" viewBox="0 0 512 512" style="enable-background:new 0 0 512 512" xml:space="preserve" class="">
  <g>
    <path fill-rule="evenodd" d="M213.708 165.552a8 8 0 0 1 16 0v26.841l16.947 9.784a7.967 7.967 0 0 1-7.937 13.813l-20.335-11.741a8 8 0 0 1-4.674-7.277v-31.42zm-58.121 39.42a8 8 0 0 1 0-16h7.167a8 8 0 0 1 0 16zm74.12 58.121a8 8 0 0 1-16 0v-7.167a8 8 0 0 1 16 0zm58.121-74.12a8 8 0 0 1 0 16h-7.167a8 8 0 0 1 0-16zm-118.531-33.099a7.998 7.998 0 0 1 0-11.312 7.998 7.998 0 0 1 11.312 0l5.068 5.068a7.998 7.998 0 0 1 0 11.312 7.998 7.998 0 0 1-11.312 0zm11.312 93.509a7.998 7.998 0 0 1-11.312 0 7.998 7.998 0 0 1 0-11.312l5.068-5.068a7.998 7.998 0 0 1 11.312 0 7.998 7.998 0 0 1 0 11.312zm93.509-11.313a7.998 7.998 0 0 1 0 11.312 7.998 7.998 0 0 1-11.312 0l-5.068-5.068a7.998 7.998 0 0 1 0-11.312 7.998 7.998 0 0 1 11.312 0zm-11.312-93.508a7.998 7.998 0 0 1 11.312 0 7.998 7.998 0 0 1 0 11.312l-5.068 5.068a7.998 7.998 0 0 1-11.312 0 7.998 7.998 0 0 1 0-11.312zm-49.098-13.71a8 8 0 0 1 16 0v7.167a8 8 0 0 1-16 0zm124.414-.254h-32.965c-19.536-24.529-49.654-40.255-83.449-40.255s-63.914 15.726-83.45 40.255H57.036a8 8 0 0 0 0 16h44.336c7.769 0 14.125 6.356 14.125 14.125s-6.356 14.125-14.125 14.125H20a8 8 0 0 0 0 16h68.709c7.769 0 14.125 6.356 14.125 14.125s-6.356 14.125-14.125 14.125H42.518a8 8 0 0 0 0 16h66.43c7.769 0 14.125 6.356 14.125 14.125s-6.356 14.125-14.125 14.125H20a8 8 0 0 0 0 16h68.709v92.557c0 9.134 7.45 16.583 16.584 16.583h34.312c0-27.15 22.019-49.168 49.168-49.168s49.169 22.018 49.169 49.168h116.763V147.182c.001-9.133-7.45-16.584-16.583-16.584zM221.708 280.019c-45.864 0-83.047-37.182-83.047-83.046 0-45.865 37.182-83.047 83.047-83.047s83.046 37.182 83.046 83.047c0 45.864-37.182 83.046-83.046 83.046zM485.636 328.7H500v-48.478c0-2.458-.432-4.559-1.404-6.851l-32.895-77.454c-3.16-7.44-10.613-12.1-19.352-12.1h-75.644v204.669h7.479c0-27.15 22.018-49.168 49.168-49.168s49.168 22.019 49.168 49.168h11.04c6.851 0 12.438-5.587 12.438-12.438V358.97h-14.364c-3.157 0-5.734-2.575-5.734-5.733v-18.804c.002-3.157 2.578-5.733 5.736-5.733zm-105.437-54.669v-64.719h63.494l27.486 64.719zm-191.425 81.288c-18.319 0-33.168 14.85-33.168 33.168 0 18.319 14.85 33.168 33.168 33.168 18.319 0 33.169-14.85 33.169-33.168-.001-18.318-14.85-33.168-33.169-33.168zm0 44.47c-6.246 0-11.301-5.055-11.301-11.301s5.055-11.301 11.301-11.301 11.301 5.055 11.301 11.301c-.001 6.245-5.055 11.301-11.301 11.301zm238.579-44.47c-18.319 0-33.168 14.85-33.168 33.168 0 18.319 14.85 33.168 33.168 33.168 18.319 0 33.168-14.85 33.168-33.168.001-18.318-14.849-33.168-33.168-33.168zm0 44.47c-6.246 0-11.301-5.055-11.301-11.301s5.055-11.301 11.301-11.301 11.301 5.055 11.301 11.301c0 6.245-5.055 11.301-11.301 11.301z" clip-rule="evenodd" fill="#ff7b00" opacity="1" data-original="#000000" class=""/>
  </g>
</svg>
