<?xml version="1.0" encoding="UTF-8"?>
<svg xmlns="http://www.w3.org/2000/svg" xmlns:xlink="http://www.w3.org/1999/xlink" version="1.1" width="512" height="512" x="0" y="0" viewBox="0 0 512 512" style="enable-background:new 0 0 512 512" xml:space="preserve" class="">
  <g>
    <path fill="#fefdfe" d="M412.65 50.032V221.42c0 86.511-70.131 156.643-156.643 156.643-86.511 0-156.643-70.131-156.643-156.643V50.032c0-19.96 16.181-36.141 36.141-36.141h241.003c19.961 0 36.142 16.181 36.142 36.141z" opacity="1" data-original="#fefdfe" class=""/>
    <path fill="#ffb9ef" d="M153.577 68.104h204.86v122.398h-204.86zM291.034 337.465v139.684c0 11.562-9.373 20.935-20.935 20.935h-28.185c-11.562 0-20.935-9.373-20.935-20.935V337.465c0-11.562 9.373-20.935 20.935-20.935H270.1c11.561 0 20.934 9.373 20.934 20.935z" opacity="1" data-original="#b8daff" class=""/>
    <g fill="#3f8cf4">
      <path d="M412.618 119.421a7.805 7.805 0 0 0-7.81 7.81v4.141c0 4.317 3.493 7.81 7.81 7.81s7.81-3.493 7.81-7.81v-4.141a7.805 7.805 0 0 0-7.81-7.81z" fill="#f554c7" opacity="1" data-original="#3f8cf4" class=""/>
      <path d="M420.428 49.997c0-24.199-19.684-43.891-43.883-43.891H135.539c-24.245 0-43.967 19.692-43.967 43.891v171.421c0 75.294 50.561 139.604 121.597 158.677v97.055c0 15.848 12.896 28.744 28.744 28.744h28.188c15.848 0 28.744-12.896 28.744-28.744v-97.106c71.863-19.221 121.582-83.487 121.582-158.626v-54.362c0-4.317-3.493-7.81-7.81-7.81s-7.81 3.493-7.81 7.81v54.362c0 66.591-43.118 123.774-105.963 142.459v-26.414c0-15.848-12.896-28.744-28.744-28.744h-28.188c-15.848 0-28.744 12.896-28.744 28.744v26.491c-61.336-18.379-105.978-75.103-105.978-142.536V49.997c0-15.589 12.713-28.271 28.348-28.271h241.005c15.581 0 28.264 12.683 28.264 28.271v41.542c0 4.317 3.493 7.81 7.81 7.81s7.81-3.493 7.81-7.81V49.997zM228.789 337.463c0-7.238 5.888-13.125 13.125-13.125h28.188c7.238 0 13.125 5.888 13.125 13.125V477.15c0 7.238-5.888 13.125-13.125 13.125h-28.188c-7.238 0-13.125-5.888-13.125-13.125z" fill="#f554c7" opacity="1" data-original="#3f8cf4" class=""/>
      <path d="M153.576 60.292a7.805 7.805 0 0 0-7.81 7.81V190.5a7.805 7.805 0 0 0 7.81 7.81h204.863a7.805 7.805 0 0 0 7.81-7.81V68.102a7.805 7.805 0 0 0-7.81-7.81zM350.63 182.69H161.386V75.911H350.63z" fill="#f554c7" opacity="1" data-original="#3f8cf4" class=""/>
      <path d="M205.871 137.114h29.194c4.317 0 7.81-3.493 7.81-7.81s-3.493-7.81-7.81-7.81h-29.194c-4.317 0-7.81 3.493-7.81 7.81s3.493 7.81 7.81 7.81zM276.95 137.114h29.194c4.317 0 7.81-3.493 7.81-7.81s-3.493-7.81-7.81-7.81H276.95c-4.317 0-7.81 3.493-7.81 7.81s3.493 7.81 7.81 7.81z" fill="#f554c7" opacity="1" data-original="#3f8cf4" class=""/>
    </g>
  </g>
</svg>
