<?xml version="1.0" encoding="UTF-8"?>
<svg xmlns="http://www.w3.org/2000/svg" xmlns:xlink="http://www.w3.org/1999/xlink" version="1.1" width="512" height="512" x="0" y="0" viewBox="0 0 24 24" style="enable-background:new 0 0 512 512" xml:space="preserve" class="">
  <g>
    <path d="M21.892 9.928 20.8 8.839a1.446 1.446 0 0 1-.42-1.013V6.549a2.935 2.935 0 0 0-2.931-2.931h-1.275a1.445 1.445 0 0 1-1.012-.418l-1.09-1.091a2.934 2.934 0 0 0-4.144 0L8.839 3.2a1.446 1.446 0 0 1-1.013.42H6.549a2.935 2.935 0 0 0-2.931 2.929v1.277A1.445 1.445 0 0 1 3.2 8.838l-1.092 1.09a2.934 2.934 0 0 0 0 4.144L3.2 15.161a1.446 1.446 0 0 1 .42 1.013v1.277a2.935 2.935 0 0 0 2.931 2.931h1.275a1.445 1.445 0 0 1 1.012.419l1.09 1.091a2.933 2.933 0 0 0 4.144 0l1.089-1.09a1.446 1.446 0 0 1 1.013-.42h1.277a2.935 2.935 0 0 0 2.931-2.931v-1.277a1.442 1.442 0 0 1 .42-1.012l1.09-1.09a2.934 2.934 0 0 0 0-4.144zM9.5 8A1.5 1.5 0 1 1 8 9.5 1.5 1.5 0 0 1 9.5 8zm.2 7.358a.75.75 0 0 1-1.06-1.06l5.66-5.656a.75.75 0 0 1 1.06 1.06zm4.8.642a1.5 1.5 0 1 1 1.5-1.5 1.5 1.5 0 0 1-1.5 1.5z" data-name="Layer 2" fill="#ff7b00" opacity="1" data-original="#000000" class=""/>
  </g>
</svg>
