<?xml version="1.0" encoding="UTF-8"?>
<svg xmlns="http://www.w3.org/2000/svg" xmlns:xlink="http://www.w3.org/1999/xlink" version="1.1" width="512" height="512" x="0" y="0" viewBox="0 0 500 500" style="enable-background:new 0 0 512 512" xml:space="preserve" class="">
  <g>
    <path fill-rule="evenodd" d="M255.998 261.033c3.091-1.745 7.342-3.778 10.187-5.529 5.83-3.587 12.003-7.138 17.554-11.241 3.351-2.547 14.554-11.145 17.365-13.991 3.251-3.29 4.074-3.031 5.603-4.52 1.661-1.604 3.283-3.254 5.013-4.79l12.129-13.498 5.179-6.434c1.953-2.334 5.102-7.971 6.686-10.931 1.314-2.455 1.455-1.296 2.653-3.369 3.131-5.419 3.458-6.767 5.993-11.836l-10.937.275c-4.19.142-7.576-3.11-7.608-7.603l-.298-23.564-23.816-.052c-4.307-.02-7.838-3.552-7.815-7.964l.201-9.872c.048-4.195-.075-10.014.252-13.979l.046-11.762.109-4.486c.099-3.96 3.304-7.031 7.35-6.967 7.689.121 19.866.608 26.784 1.278.406-4.301 1.817-12.679 2.71-17.021-2.574-.876-1.139.104-3.569-.859s-2.411-.236-5.913-1.066c-5.964-1.413-7.417-.244-10.828-.355-9.959-.326-14.898 1.678-24.372 5.363-2.255.877-11.092 4.837-13.395 6.583-2.617 1.984-5.585 3.123-7.7 4.864a2.825 2.825 0 0 1-.43.292c-3.82 2.048-6.782 4.828-10.422 7.23-2.429 1.541-5.454 1.392-7.7-.126-4.912-3.371-8.449-5.575-13.911-8.554-10.888-5.937-21.619-11.881-33.659-13.968-6.54-1.133-15.404-.266-21.37 1.805-10.998 3.818-18.922 12.273-23.558 23.014-5.621 13.021-6.221 30.146-4.097 44.218.453 2.939 1.117 5.873 1.65 8.76 1.064 5.932 4.817 16.592 7.574 22.728 10.282 22.884 26.721 44.849 45.45 61.457 14.431 12.797 26.573 20.941 43.645 30.027zm3.867 12.003-8.823 4.429c-2.754 1.382-4.668.095-6.852-.997-31.245-15.629-53.904-33.388-76.336-61.308-2.402-3.1-9.579-12.994-11.458-16.345-5.582-9.955-7.946-13.533-12.266-24.458-4.207-10.641-6.915-19.801-8.691-31.385-3.602-23.499-1.226-49.491 15.211-68.223 14.986-17.079 37.929-21.902 59.377-15.515 7.255 2.16 18.785 7.294 24.738 11.12.378.246.796.464 1.192.699 5.616 3.251 10.009 5.903 15.291 9.545 10.005-5.902 17.926-10.312 29.276-14.272 3.029-1.057 12.026-3.032 15.045-3.518 8.375-1.348 18.134-.554 26.085 2.504.789.304 5.011 2.274 5.317 2.79.701 1.181 2.119 1.826 3.128 2.979.676.814.957 1.157 1.363 1.53 1.189-5.198.959-2.023 2.04-4.91.153-.409.555-.156.951-1.954.172 1.14.281 2.183.676 3.134.244.579-.003 1.785.562 3.306.739 1.991.442 5.025 1.724 9.081.619 1.956.51 8.267.917 11.596.143 1.152.252 2.292.333 3.432.185 2.757-2.047 5.135-4.589 5.202l-15.52.533c-2.342.558-4.731.065-6.594.516l-2.996.08c.074 1.616.126 3.22.212 4.824.332 6.09.08 12.197.206 18.293.017.899.006 1.805.006 2.71l24.034-.057c4.193-.003 7.588 3.401 7.591 7.591l.195 23.759 9.15.017c2.234 0 4.492-.126 6.698.029 2.698.189 5.368.034 8.049-.034l.074-24.04c.124-4.397 3.571-7.712 7.941-7.671l24.412.481c.288-8.271.203-17.161.298-25.472l-24.773-.321c-3.541-.023-6.405-2.893-6.382-6.44l.023-8.015.069-5.007c-.23-3.717.478-3.591.539-5.208l.206-8.227c-3.544-.231-4.279-.526-8.084-.504-1.601.009-5.049.301-6.136-.292-.627-.342-4.687-.694-5.552-.665-3.227.111-9.098-.676-12.306-1.644l3.443-.372c-1.478-.354-.771-.075-.521-.785-.534-.243-3.175-.342-1.765-.63 2.787-.57 11.494-1.233 15.372-1.77l21.158-2.332a3.526 3.526 0 0 1 3.816 3.208c.877 10.22 1.133 16.741 1.324 26.927l26.44-.407c3.148-.033 5.691 2.458 5.712 5.723l.464 27.002.023 12.69a6.19 6.19 0 0 1-6.176 6.216l-25.077.08.424 25.283c.016 3.835-3.069 6.948-6.95 6.955l-6.204.023c-1.49.017-2.979.155-4.475.149l-13.132.08-3.334 8.897c-4.945 12.421-12.789 26.366-20.923 36.936-11.542 14.999-24.175 26.067-39.554 36.793-2.382 1.661-4.719 3.635-7.196 4.801a7.697 7.697 0 0 0-1.146.693c-3.006 2.185-13.324 8.213-17.294 10.142zm213.378-118.399c.842 2.516.984 4.81.773 7.356-2.201 26.561-2.947 53.778-6.543 80.289-1.736 12.88-2.635 17.652-6.033 30.164-3.546 13.059-9.496 25.001-17.99 35.538-14.818 18.383-37.909 30.083-53.757 47.237-16.799 18.183-21.087 38.845-20.986 63.262l-.017 2.853c-.328 8.235-4.509 14.791-11.619 18.775-6.565 3.678-11.804 3.368-18.563 3.346l-26.32-.229c-8.733-.09-18.888.149-27.403-.252-.596-.029-1.22-.017-1.828-.017h-16.116c-4.169 0-7.5-3.33-7.5-7.448.078-20.198.415-44.884 1.341-64.62.075-1.553.184-3.122.338-4.618l.934-11.854c1.557-15.036 9.374-25.18 21.078-33.779l6.692-4.348c1.169-.172 2.819-1.146 4.446-2.091 1.821-1.041 1.495-.284 5.173-2.727-1.341 1.467-2.71 2.825-3.34 4.033-.349.653-2.869 2.358-4.234 4.394-2.025 3.022-7.363 6.304-11.292 12.902l-1.587 2.383c-8.659 12.184-6.674 19.193-6.692 32.92-.003 2.425.046 18.682.378 21.467.532 4.464.054 9.116.516 12.931.029.229.046.493.04.716-.149 4.847.315 9.413.579 14.065l.08 10.891c.596-.012 1.203-.029 1.805-.04 11.945-.332 23.908-.08 35.87-.206 6.222-.063 12.421-.012 18.648.074 3.151.046 6.331-.069 9.499-.069 4.252-.004 8.738.426 11.922-3.128 1.88-2.099 1.558-4.07 1.547-6.806-.097-24.6 4.711-47.829 20.207-67.398 11.411-14.411 25.256-23.291 39.451-34.232 10.496-8.12 17.223-14.03 24.75-25.352 14.362-21.601 18.51-70.226 20.344-95.368.798-10.935 1.451-21.998 2.538-32.914.166-1.668.508-3.021-.046-4.389-1.742-4.305-10.155-5.145-13.888-1.753-1.301 1.182-1.521 2.539-1.982 4.137L423.55 231.74c-2.526 8.542-6.704 15.994-12.679 22.625 2.261 2.183 4.445 4.611 4.801 8.164.43 4.29-.824 6.917-.917 7.895-.117 1.234-.528.888-.573 1.341-.177 1.801-3.622 6.49-4.961 7.843-2.259 2.281-10.414 8.683-10.479 8.777-.453.624-1.089 1.014-1.633 1.524-.407.373-.751.808-1.123 1.215-.611.655-.508.17-1.524 1.295l-3.065 2.572c-.275.224-.475.55-.756.768l-5.059 4.555-8.697 7.436-7.952 5.483c-1.84 1.523-2.487 1.859-4.503 3.06-4.985 2.969-3.723 1.441-6.737 2.441l-4.818.567c-1.713-.052-2.79-1.405-4.108-1.627.057-.326.183-.556-.017-1.043-.105-.273.417-.223.241-.905-.247-.952.756-.703.756-2.521 0-.806 1.352-1.094 2.074-2.343.946-1.637 2.955-2.77 3.02-3.386.083-.793.88-.775.922-1.381 0-.034.017-.074.046-.08.55-.252.699-.963.985-1.513l1.089-.968c1.059-1.595 4.689-4.568 6.342-5.597.327-.212.562-.527.859-.774l7.689-6.13c.556-.453 1.031-.986 1.587-1.45l6.085-4.755c.74-.293 5.702-5.033 7.184-6.022l11.539-7.648c2.789-1.848 4.741-4.484 5.237-7.763.027-.403-.388-.552.332-.894.407-.194.195-2.353.183-2.727-.075-2.314.219-1.403-.94-2.664-.011 0-.011 0-.011-.006a6.35 6.35 0 0 1-2.956-1.564c-5.572-4.912-9.969-4.495-16.546-3.776-2.271.249-4.7 2.196-6.474 3.501l-19.387 14.684c-4.194 3.088-8.33 6.285-12.587 9.253-3.851 2.682-15.018 12.544-17.021 13.24-1.072.372-7.982 5.574-9.247 6.68-4.597 4.004-14.106 10.973-19.508 13.423.864-1.187 4.44-4.206 5.792-5.403-2.171 1.183-1.306 1.01-.413-1.003-.871.206-2.057 1.358-3.025 1.782-1.11.114 8.952-8.526 10.341-9.734 17.92-15.67 35.693-31.509 53.791-46.974l6.336-5.345c9.125-7.206 21.63-7.868 31.465-2.045 8.118-10.738 7.359-17.231 10.736-26.314.195-.527.378-1.169.504-1.736 1.031-4.612 2.538-9.161 3.77-13.744 1.106-4.102 2.28-8.216 3.438-12.318l9.436-33.819c3.493-12.217 16.34-16.658 27.363-13.67 6.007 1.627 11.446 6.438 13.466 12.415zM241.165 429.288c.074 2.057.132 4.114.172 6.182.085 3.935-2.909 7.048-7.133 7.133-2.916.063-5.838.132-8.754.189-11.945.338-23.913.086-35.865.212-6.228.063-12.427.017-18.654-.074-2.781-.041-13.645.295-16.672-.092-11.865-1.517-21.136-9.546-21.433-22.098-.125-5.259.009-9.322-.453-14.856-2.402-28.828-12.35-45.019-34.771-62.861-7.755-6.171-22.687-16.575-29.379-23.02-8.863-8.535-13.568-13.447-19.668-23.627-20.291-33.861-19.341-90.898-22.241-129.554-.41-5.463-1.184-9.658 1.615-14.97 8.641-16.399 35.892-15.149 41.554 3.632l7.918 27.901 12.593 44.693c1.467 5.181 3.585 9.7 6.789 14.065 4.374-2.327 8.537-3.284 13.447-3.558 5.616-.313 9.193 1.275 13.853 3.552 2.808 1.372 5.527 3.694 7.912 5.724 1.529 1.323 3.26 2.544 4.864 3.839 4.085 3.3 8.187 6.589 12.197 9.929 4.016 3.346 8.124 6.611 12.031 10.037 3.419 3.006 10.6 8.155 14.518 11.08 3.006 2.245 1.722 2.012 4.377 4.188l6.795 5.529c4.185 2.999 9.694 7.413 13.286 11.069 1.404 1.429 3.235 3.084 4.389 4.646-1.37-.589-5.17-3.335-6.674-4.377 1.787 1.854.678.989.092.796l-1.003-.189c.299.608 4.215 3.866 1.392 2.131-3.649-2.229-7.299-4.83-10.948-7.396-21.395-15.042-43.095-29.665-64.196-45.14-4.196-3.077-8.691-4.616-14.048-3.947-9.876 1.233-9.556 7.271-14.856 5.729-.091 3.979 1.022 5.391 1.134 7.499l1.071 3.352c.479.5.06.57.275.699.356.213 1.206 2.168 3.266 3.512 4.641 3.226 8.609 6.875 13.452 9.614.82.464.275.442 1.616 1.169l6.589 4.709 3.369 2.12 10.788 7.941 5.414 4.881 2.183 1.77c1.298 1.176 4.798 4.675 5.122 6.096.337 1.478 1.204 1.933 1.69 3.621 1.259 4.37 1.351 2.498.298 7.184-1.32.118-.917.474-1.289.218-.463-.319-.753.412-1.409.069-1.574-.822-1.776.669-3.449-.991-.753-.747-1.827-.554-2.916-1.444-1.937-1.583-2.633-1.207-3.054-1.518-.223-.172-.418-.39-.785-.344-.04 0-.074 0-.092-.029-.384-.481-1.106-.453-1.713-.596l-1.197-.825c-1.77-.65-5.6-3.486-6.955-4.812-2.192-1.894-15.262-11.233-16.603-12.627-.998-1.038-5.97-4.06-7.563-5.534L92.55 281.475c-1.923-1.797-2.219-1.782-4.062-4.314a23.93 23.93 0 0 1-4.475-12.134c-.191-4.081.304-2.319.527-3.38.423-2.005 1.171-5.622 2.75-7.173.731-.718.77-3.071 1.65-2.933.195.034.292-.017.372-.092-5.007-5.962-8.326-12.267-10.599-19.72-1.016-3.332-2.694-8.226-3.306-11.229a15.186 15.186 0 0 0-.498-1.742c-1.581-4.457-2.727-9.104-4.119-13.641l-13.67-45.914c-1.234-4.148-4.863-5.657-9.001-5.557-2.693.065-4.712.514-6.669 2.269-2.581 2.314-2.15 3.897-1.908 6.548 2.792 30.599 2.797 60.715 9.385 90.745 1.299 5.922 1.879 9.201 3.81 15.331 3.484 11.06 8.005 21.687 15.761 30.462 11.417 12.917 19.39 17.733 32.897 27.718 16.309 12.056 29.857 24.117 38.472 43.805 6.617 15.124 8.531 31.691 8.576 47.942.009 3.134-.266 5.431 3.449 7.597 1.386.762 3.065 1.306 4.767 1.363l24.538.143 45.576.407c.202-18.992.478-38.155 1.277-57.086.309-7.319 1.378-11.427.734-19.25-1.192-14.463-9.431-22.392-18.523-32.8-.887-1.015-.586-1.526-3.248-4.801-1.007-1.239-.738-1.675-3.443-4.795 1.639 1.146 3.174 2.372 4.463 2.801.709.238 2.801 2.518 4.973 3.523 2.502 1.159 11.866 9.543 14.22 11.585 3.46 3.002 7.071 9.346 8.514 13.423 3.598 10.169 3.853 17.125 3.827 27.529-.006 2.321.048 18.757.378 21.467.537 4.407.046 9.092.516 12.931.029.229.046.493.034.716-.143 4.847.321 9.413.584 14.065.216 3.856-.058 8.252.086 12.004z" clip-rule="evenodd" fill="#009a78" opacity="1" data-original="#000000" class=""/>
  </g>
</svg>
