<?xml version="1.0" encoding="UTF-8"?>
<svg xmlns="http://www.w3.org/2000/svg" xmlns:xlink="http://www.w3.org/1999/xlink" version="1.1" width="512" height="512" x="0" y="0" viewBox="0 0 512 512" style="enable-background:new 0 0 512 512" xml:space="preserve" class="">
  <g>
    <path d="M74.9 169.34h58.85v-36.79c0-17.66 14.4-32.06 32.06-32.06h62.9v-50.8c0-11 9.81-19.28 20.83-19.28h114.58c11 0 20.83 8.28 20.83 19.28v50.8h62.9c17.63 0 32.03 14.4 32.03 32.06v207.21c0 17.63-14.4 32.06-32.03 32.06h-42.63c-2.44 14.85-8.16 29.88-18.77 39.12l33.19 38.44c7.4 8.56 2.92 19.67-9.69 21.71l-142.13 22.96c-8.84 1.45-20.3-1.81-26.08-8.5l-21.17-24.49c-5.19 6.09-12.87 9.81-21.15 9.81H63.81c-15.36 0-27.89-12.53-27.89-27.89V280.06c0-15.34 12.53-27.86 27.89-27.86H85.7v-26.11H74.9c-6.75 0-12.3-5.56-12.3-12.3v-32.17c-.01-6.72 5.55-12.28 12.3-12.28zm72.85 0h40.59c6.75 0 12.3 5.56 12.3 12.27v32.17c0 6.75-5.56 12.3-12.3 12.3h-10.8v26.11h21.88c11.14 0 21.12 6.75 25.51 16.7l50.46-4.03v-12.95h-35.21c-3.85 0-7-3.15-7-7v-48.84c0-3.86 3.15-7 7-7h35.21v-35.21c0-3.88 3.15-7 7-7h48.84c3.86 0 7 3.12 7 7v35.21h35.23c3.86 0 6.97 3.15 6.97 7v48.84c0 3.86-3.12 7-6.97 7h-35.23v7.91l16.38-1.33v.03a7.5 7.5 0 0 1 2.13.14c12.33.68 23.7 8.9 32.48 22.88 12.25 19.53 18.62 49.78 17.4 76.28h41.22c9.89 0 18.03-8.16 18.03-18.06V132.55c0-9.92-8.14-18.06-18.03-18.06H165.8c-9.92 0-18.06 8.14-18.06 18.06v36.79zm38.89 14.01H76.6v28.74h110.04zm-.09 174.78c1.33 10.43 4.31 19.62 8.08 26.02 2.86 4.85 5.56 7.65 7.68 7.46 1.81-.34 3.43-3.2 4.85-7.6 4.9-15.31 1.42-40.03-6.55-53.55-2.86-4.85-5.56-7.65-7.68-7.46-1.81.34-3.43 3.2-4.85 7.6-2.32 7.29-2.83 17.35-1.53 27.53zm-3.94 33.08c-10.01-16.98-13.89-45.86-7.82-64.86 3.17-9.89 8.93-16.5 16.92-17.26 7.91-.74 15.34 4.79 20.92 14.32 10.01 16.98 13.89 45.86 7.82 64.86-3.17 9.89-8.93 16.5-16.92 17.23-7.91.76-15.33-4.76-20.92-14.29zm19.7.4h.03zm-9.38-68.6h-.03zm-31.26 37.47c2.92 22.79 10.83 42.07 23.07 56.1 7.09 8.11 16.21 12.98 24.55 11.93 9.5-1.22 16.98-9.69 21.77-20.66 13.46-30.73 6.63-78.43-12.9-104.97-8.42-11.42-18.62-18.34-28.77-17.09-9.58 1.16-17.09 9.92-21.8 20.64-6.29 14.4-8.48 33.96-5.92 54.05zm4.25 54.32c-18.45-28.86-24.75-73.62-13.92-106.55H87.03l-.37.34v105.87l.37.34zm-7.8-120.56c7.23-12.73 18.09-21.43 30.67-22.42l20.35-1.64c-2.52-2.49-5.95-3.97-9.72-3.97h-28.89c-3.85 0-7-3.15-7-7V226.1H99.7v33.11c0 3.86-3.15 7-7 7H63.81c-7.63 0-13.89 6.24-13.89 13.86v162.91c0 7.63 6.26 13.89 13.89 13.89h135.61c4.9 0 9.33-2.58 11.82-6.6l-6.66-7.74c-9.75-.65-19.19-5.58-27.5-13.75-.28.03-.57.03-.88.03H87.03c-7.91 0-14.37-6.43-14.37-14.34V308.58c0-7.88 6.46-14.34 14.37-14.34zm61.17-10.86c33.42 29.74 43.97 103.32 18.79 140.66l130.11-19.02 5.05-1.79c5.92-3.12 10.97-9.78 14.46-19.19 10.46-28.06 4-72.34-10.29-95.05-6.83-10.89-14.49-16.41-22.85-16.44l-22.22 1.76c-.34.06-.71.11-1.11.11zm70.1-19.64 34.84-2.81v-16.02c0-3.88 3.15-7 7-7h35.23v-34.84h-35.23c-3.85 0-7-3.15-7-7v-35.21h-34.84v35.21c0 3.85-3.12 7-7 7h-35.21v34.84h35.21c3.88 0 7 3.12 7 7zm84.65 154.17-2.58.77-150.07 21.94 30.9 35.8c2.52 2.92 9.27 4.51 13.35 3.86l142.38-23.02zm-3.09-317.42v-50.8c0-3.17-3.49-5.27-6.83-5.27H249.54c-3.37 0-6.83 2.1-6.83 5.27v50.8h14.54V71.41c0-8.33 7.28-14.68 15.65-14.68h67.86c8.33 0 15.65 6.35 15.65 14.68v29.08zm-28.55 0V71.41c0-.11-.68-.68-1.64-.68H272.9c-.99 0-1.64.57-1.64.68v29.08z" fill="#0e0e0e" opacity="1" data-original="#000000" class=""/>
  </g>
</svg>
