<?xml version="1.0" encoding="UTF-8"?>
<svg xmlns="http://www.w3.org/2000/svg" xmlns:xlink="http://www.w3.org/1999/xlink" version="1.1" width="512" height="512" x="0" y="0" viewBox="0 0 32 32" style="enable-background:new 0 0 512 512" xml:space="preserve" class="">
  <g>
    <g data-name="40-User">
      <path d="M16 2a7 7 0 1 0 7 7 7 7 0 0 0-7-7zm0 12a5 5 0 1 1 5-5 5 5 0 0 1-5 5zM21.17 18H10.83A8.84 8.84 0 0 0 2 26.83 3.17 3.17 0 0 0 5.17 30h21.66A3.17 3.17 0 0 0 30 26.83 8.84 8.84 0 0 0 21.17 18zm5.66 10H5.17A1.17 1.17 0 0 1 4 26.83 6.83 6.83 0 0 1 10.83 20h10.34A6.83 6.83 0 0 1 28 26.83 1.17 1.17 0 0 1 26.83 28z" fill="#123a64" opacity="1" data-original="#000000"/>
    </g>
  </g>
</svg>
